<?xml version="1.0" encoding="UTF-8"?>
<svg version="1.1" xmlns="http://www.w3.org/2000/svg" width="512" height="512">
<path d="M0 0 C21.84109263 -0.53967816 42.47103648 6.92952262 58.34594727 22.01586914 C59.73994908 23.3747843 61.12041644 24.74754336 62.5 26.12109375 C63.15742188 26.74371094 63.81484375 27.36632812 64.4921875 28.0078125 C78.36314006 42.23033298 83.78697433 63.33172701 83.74438477 82.59887695 C83.4854793 100.4058196 77.77856015 117.24160778 66.5 131.12109375 C65.83355469 131.94996094 65.16710937 132.77882813 64.48046875 133.6328125 C58.86066854 140.2449378 52.57134434 145.1675632 45.5 150.12109375 C46.04785156 150.34023438 46.59570312 150.559375 47.16015625 150.78515625 C48.88901038 151.4766979 50.61674208 152.17104807 52.34375 152.8671875 C54.52355272 153.73317348 56.7117289 154.57827128 58.90625 155.40625 C82.20917666 164.34401781 110.37314457 179.65983511 124.5 201.12109375 C125.48697445 204.38092936 125.27357901 205.66974124 124.5 209.12109375 C122.9375 211.62109375 122.9375 211.62109375 120.5 213.12109375 C117.01212517 213.77918334 114.72619239 213.90805305 111.66796875 211.9453125 C109.85107728 210.41342361 108.16799197 208.81325951 106.5 207.12109375 C105.675 206.31671875 104.85 205.51234375 104 204.68359375 C102.69114266 203.34201498 101.38629467 201.99540239 100.12890625 200.60546875 C76.88222171 175.7935461 39.71454556 163.54809877 6.56640625 162.24609375 C5.21098167 162.20301412 3.85551383 162.16126704 2.5 162.12109375 C1.37464844 162.07984375 0.24929687 162.03859375 -0.91015625 161.99609375 C-35.44162568 161.33756752 -66.96159416 170.5522982 -93.5 193.12109375 C-94.60408203 194.00667969 -94.60408203 194.00667969 -95.73046875 194.91015625 C-115.20936529 211.1138401 -130.23610757 238.01824324 -133.9453125 263.13671875 C-134.20908619 268.86940025 -132.87355849 273.46039295 -129.5 278.12109375 C-125.69691883 282.21591813 -121.41797526 284.8374485 -115.80765057 285.38280678 C-114.8314718 285.38833754 -113.85529303 285.39386829 -112.84953308 285.39956665 C-111.72357727 285.41073013 -110.59762146 285.42189362 -109.43754578 285.43339539 C-107.59903801 285.43663567 -107.59903801 285.43663567 -105.72338867 285.43994141 C-104.42543365 285.44998703 -103.12747864 285.46003265 -101.79019165 285.47038269 C-98.23896059 285.49764594 -94.68776912 285.51282113 -91.13646102 285.52581072 C-87.42217079 285.54145739 -83.70796121 285.5682427 -79.99372864 285.59384155 C-72.96385601 285.64060217 -65.93396817 285.6773594 -58.90401965 285.71051443 C-50.89916939 285.74875503 -42.89440018 285.79816011 -34.88961828 285.84849858 C-18.42647042 285.95177802 -1.96327758 286.04105136 14.5 286.12109375 C14.49111755 285.47042938 14.48223511 284.81976501 14.4730835 284.14938354 C14.38449166 277.36855873 14.32421627 270.58789871 14.28027344 263.80664062 C14.26017595 261.27695028 14.23289332 258.74730629 14.19824219 256.21777344 C14.14964444 252.57865958 14.12701188 248.94016075 14.109375 245.30078125 C14.08872986 244.17243866 14.06808472 243.04409607 14.04681396 241.88156128 C14.045037 235.64329666 14.23051906 231.81675316 18.5 227.12109375 C23.32108515 223.48068251 26.78678265 222.00305638 32.77832031 221.95996094 C33.85664124 221.95035339 34.93496216 221.94074585 36.04595947 221.93084717 C37.2115741 221.92659729 38.37718872 221.92234741 39.578125 221.91796875 C40.77806091 221.91226868 41.97799683 221.9065686 43.21429443 221.9006958 C45.75629799 221.89124229 48.29831382 221.88471043 50.84033203 221.88085938 C54.72059669 221.87116719 58.60032874 221.84015163 62.48046875 221.80859375 C64.95051769 221.8020623 67.42057042 221.79681239 69.890625 221.79296875 C71.0481427 221.78062195 72.2056604 221.76827515 73.39825439 221.7555542 C81.12675712 221.77681497 86.25207741 222.37840356 92.3125 227.49609375 C96.38130939 232.37866502 96.58051126 235.87049261 96.5 242.12109375 C111.18906802 242.35008768 111.18906802 242.35008768 124.5 237.12109375 C125.20253906 236.63640625 125.90507812 236.15171875 126.62890625 235.65234375 C136.60734621 227.86070739 139.16206079 215.42274801 142.484375 203.79296875 C142.94803806 202.19735682 143.4125965 200.60200483 143.87799072 199.00689697 C145.09942581 194.81231462 146.30960529 190.61457095 147.51708984 186.41595459 C148.71626263 182.25210471 149.9246462 178.09093501 151.1328125 173.9296875 C151.36908104 173.1152845 151.60534958 172.3008815 151.84877777 171.46179962 C153.03106889 167.38689509 154.21488244 163.31243961 155.40100098 159.23864746 C155.86696414 157.63761998 156.33290669 156.0365865 156.79882812 154.43554688 C157.02631996 153.65435234 157.2538118 152.87315781 157.48819733 152.06829071 C158.80743228 147.53041747 160.10724561 142.98758408 161.38993454 138.43925095 C162.1740098 135.66940388 162.97146245 132.90352635 163.77191925 130.13837433 C164.30822071 128.26861307 164.82703292 126.39386251 165.34515381 124.51898193 C167.7418294 116.29523915 170.64289097 109.24911732 178.1875 104.62109375 C184.06895511 102.12287568 190.13007164 102.01088411 196.1796875 104.00390625 C206.28441711 108.64163929 212.24434335 116.08669145 216.36416626 126.25370789 C218.87692433 133.73407347 218.89149155 140.86937154 218.8359375 148.703125 C218.84009956 150.08933745 218.84629154 151.47554513 218.85440063 152.86174011 C218.88510736 158.70013172 218.88041211 164.53828692 218.86035156 170.37670898 C218.84942364 173.96762206 218.86263032 177.55781355 218.89024734 181.14862633 C218.89567172 182.50933066 218.89166516 183.87010793 218.87784958 185.23075294 C218.40337625 193.40545687 218.40337625 193.40545687 221.78759766 200.4284668 C226.5187809 203.38087845 230.86946141 203.26685639 236.33862305 203.26293945 C237.1245433 203.26641388 237.91046356 203.26988831 238.72019958 203.27346802 C240.42475874 203.28081078 242.12932737 203.28616404 243.83389854 203.28975868 C246.537766 203.29694422 249.24145408 203.31262756 251.94526672 203.33110046 C259.63234968 203.38346336 267.31933442 203.43150832 275.0065918 203.44702148 C279.71224969 203.45713913 284.41745555 203.48655999 289.12293434 203.52834129 C290.91012963 203.54060337 292.69738891 203.54578136 294.48462486 203.54354286 C306.97831583 203.53174778 316.28802531 204.38622282 325.7734375 213.19140625 C329.52750459 217.38712829 331.95138634 222.49780378 332.5 228.12109375 C332.59474609 229.07048828 332.59474609 229.07048828 332.69140625 230.0390625 C333.08392997 237.1931239 331.22745487 244.55883377 326.828125 250.3046875 C326.17070313 251.20380859 326.17070313 251.20380859 325.5 252.12109375 C326.00886646 254.53026425 326.00886646 254.53026425 327.5 257.12109375 C328.19103057 258.47346218 328.87829429 259.82775963 329.5625 261.18359375 C329.90410156 261.83457031 330.24570312 262.48554688 330.59765625 263.15625 C333.9628369 270.48389445 332.92350371 278.28915927 330.5 285.74609375 C328.98817798 289.33667104 326.93691457 292.09141617 324.5 295.12109375 C325.098125 295.82234375 325.69625 296.52359375 326.3125 297.24609375 C331.65246108 304.26432831 333.48889837 311.42146077 332.5 320.12109375 C331.21381282 324.82650131 329.81601263 329.40228286 326.828125 333.3046875 C326.38984375 333.90410156 325.9515625 334.50351562 325.5 335.12109375 C326.00886646 337.53026425 326.00886646 337.53026425 327.5 340.12109375 C328.19103057 341.47346218 328.87829429 342.82775963 329.5625 344.18359375 C329.90410156 344.83457031 330.24570312 345.48554688 330.59765625 346.15625 C333.84849881 353.23492449 333.13654686 361.32167339 330.73046875 368.5625 C327.12619454 376.05710193 321.59233254 381.03482268 314.06407166 384.27540779 C309.67395003 385.72336429 305.42029669 385.66943678 300.83398438 385.62280273 C299.29289505 385.63090721 299.29289505 385.63090721 297.72067261 385.63917542 C294.34473292 385.65161811 290.96965408 385.63519126 287.59375 385.6171875 C285.2259517 385.61734269 282.85815314 385.6188349 280.49035645 385.62159729 C275.53089139 385.62297964 270.57171606 385.61045779 265.61230469 385.58764648 C259.29947909 385.55938736 252.98713906 385.56196777 246.67427826 385.5747366 C241.7821855 385.58174424 236.89020197 385.57384481 231.99812317 385.56147957 C229.67324749 385.55700548 227.3483599 385.55659233 225.02348328 385.56054497 C203.00284468 385.58044621 183.92196525 382.22508538 163.32543945 374.42333984 C146.11221659 367.90985769 129.6705552 366.07334008 111.375 365.55859375 C109.92707378 365.51529219 108.47915698 365.47167469 107.03125 365.42773438 C103.52093422 365.32188269 100.01051087 365.22029136 96.5 365.12109375 C96.36118408 366.23186279 96.22236816 367.34263184 96.0793457 368.48706055 C95.50785445 372.07182553 95.07901819 373.34833231 92.6875 375.93359375 C92.18605469 376.49691406 91.68460938 377.06023437 91.16796875 377.640625 C87.53641939 380.86394399 84.4601501 381.37809538 79.66503906 381.42749023 C78.4899176 381.44347763 77.31479614 381.45946503 76.10406494 381.47593689 C74.20403717 381.48398094 74.20403717 381.48398094 72.265625 381.4921875 C70.95849548 381.50121597 69.65136597 381.51024445 68.30462646 381.51954651 C65.53736914 381.53602078 62.77023253 381.54373328 60.00292969 381.54663086 C56.47442386 381.55200226 52.94706966 381.58963459 49.41888809 381.63537502 C46.03447431 381.67246651 42.65023489 381.67366835 39.265625 381.6796875 C38.00703674 381.69921982 36.74844849 381.71875214 35.45172119 381.73887634 C29.11599302 381.70645582 24.39648339 381.343336 19.059021 377.78114319 C14.94728184 373.4029531 14.12684653 369.03994971 14.15942383 363.19775391 C14.15898575 362.53363495 14.15854767 361.86951599 14.15809631 361.18527222 C14.16017125 359.00992495 14.18343914 356.83536735 14.20703125 354.66015625 C14.21263186 353.14415915 14.21689976 351.62815659 14.21989441 350.1121521 C14.23130671 346.13691007 14.26074224 342.16200087 14.29400635 338.18688965 C14.32478559 334.12463889 14.33841647 330.06233395 14.35351562 326 C14.38561587 318.04021245 14.43676787 310.0806946 14.5 302.12109375 C13.81438586 302.12478092 13.12877172 302.12846809 12.4223814 302.132267 C-4.29688026 302.22078797 -21.01606722 302.28688572 -37.73550892 302.32834244 C-45.82107294 302.34892594 -53.90648007 302.37696541 -61.99194336 302.42285156 C-69.0431559 302.46284896 -76.09425476 302.48855715 -83.14557761 302.49744773 C-86.8757016 302.50264079 -90.60550049 302.51475707 -94.33551979 302.54401398 C-98.51003777 302.57648866 -102.68399852 302.57704494 -106.85864258 302.57519531 C-108.69284508 302.59676697 -108.69284508 302.59676697 -110.56410217 302.61877441 C-122.88055743 302.55993681 -132.3173551 299.05376261 -141.18359375 290.49609375 C-148.61022974 282.49532879 -150.9952684 273.11580134 -150.90625 262.43359375 C-149.97801803 248.35098871 -143.94414244 234.49325738 -137.5 222.12109375 C-137.02949219 221.17363281 -136.55898437 220.22617187 -136.07421875 219.25 C-119.13307496 186.36986459 -88.29764087 162.62206754 -53.39697266 151.35986328 C-49.77601443 150.23724993 -46.14530962 149.16202763 -42.5 148.12109375 C-43.056875 147.70859375 -43.61375 147.29609375 -44.1875 146.87109375 C-61.58993556 133.70168306 -72.49059218 116.85839297 -77.0859375 95.3828125 C-79.25465199 78.29907104 -78.5224849 57.84801034 -68.5 43.12109375 C-65.27881785 41.51050268 -61.98357658 41.53019121 -58.5 42.12109375 C-55.9375 44.12109375 -55.9375 44.12109375 -54.5 47.12109375 C-54.5 53.03877491 -56.38496988 57.95031971 -58.5625 63.41015625 C-63.55673628 77.85182282 -60.8525213 94.83116567 -55.0625 108.51953125 C-47.56217367 123.70048021 -35.46944511 134.88845848 -19.625 140.99609375 C-0.87577608 147.10145159 16.51292373 145.82294994 34.125 136.99609375 C50.64624283 127.58097585 60.49044699 113.19126712 65.5 95.12109375 C68.89474609 78.60729665 66.04479517 61.75032432 57.609375 47.22265625 C46.44611263 30.80852602 31.36294385 21.36111585 11.87109375 17.625 C-2.60497291 15.46113836 -19.0650867 18.52488256 -31.1875 27 C-32.033125 27.63808594 -32.87875 28.27617187 -33.75 28.93359375 C-36.83787188 31.20730006 -39.00238628 32.62282261 -42.875 32.80859375 C-46.5 32.12109375 -46.5 32.12109375 -49 30.55859375 C-51.11006839 27.12973261 -51.12491523 25.07889024 -50.5 21.12109375 C-41.36735699 9.04243687 -23.20444719 3.31225391 -8.99609375 0.65234375 C-5.99853588 0.26625401 -3.01690398 0.14613129 0 0 Z M183.5 121.12109375 C182.56035277 123.1120395 182.56035277 123.1120395 181.92871094 125.49584961 C181.65646194 126.41405991 181.38421295 127.3322702 181.10371399 128.27830505 C180.81683212 129.28732376 180.52995026 130.29634247 180.234375 131.3359375 C179.92408859 132.39406143 179.61380219 133.45218536 179.29411316 134.54237366 C178.62187088 136.84036774 177.95478215 139.13987417 177.29220581 141.44067383 C176.24379575 145.08013124 175.18144619 148.71525882 174.11547852 152.34960938 C170.8308498 163.56690287 167.58972508 174.7965584 164.36904907 186.03236389 C163.04798747 190.63340751 161.71733788 195.23165131 160.38562012 199.82962036 C159.45872987 203.04739259 158.54788454 206.26941448 157.63769531 209.49194336 C148.32877567 241.98064638 148.32877567 241.98064638 133.50390625 250.9296875 C120.93734624 257.47182923 111.65340711 257.39950294 96.5 258.12109375 C96.5 288.15109375 96.5 318.18109375 96.5 349.12109375 C106.73 349.45109375 116.96 349.78109375 127.5 350.12109375 C145.5344573 351.67372915 161.05813889 356.02602123 177.86254883 362.50390625 C194.49538484 368.72561198 210.77550808 369.59878906 228.3515625 369.703125 C230.50769001 369.72511267 232.66380797 369.74805457 234.81991577 369.77189636 C239.3026055 369.81839171 243.78523232 369.85518948 248.26806641 369.88452148 C254.00331181 369.92259407 259.73807426 369.98270507 265.47304726 370.04964161 C269.90996611 370.0994698 274.34692989 370.13908606 278.78397751 370.1754818 C280.89944471 370.19379871 283.01488939 370.21495407 285.13029861 370.23905373 C288.07989517 370.27086155 291.02927903 370.28922291 293.97900391 370.30395508 C294.84350159 370.31578323 295.70799927 370.32761139 296.59869385 370.33979797 C303.08379622 370.35044582 308.3912937 370.04643428 313.375 365.49609375 C315.83696133 361.58591987 316.9457328 358.73888557 316.5 354.12109375 C315.17938134 350.02880631 313.58373301 347.76429711 309.86035156 345.55444336 C306.07946465 343.94171544 303.33572551 343.70959104 299.23828125 343.64453125 C298.56580856 343.62895172 297.89333588 343.61337219 297.20048523 343.59732056 C295.07116743 343.55015119 292.94217147 343.52215068 290.8125 343.49609375 C288.6723438 343.459514 286.53236651 343.41886297 284.39237976 343.3734436 C282.45875339 343.33397976 280.52490102 343.30609332 278.59106445 343.27880859 C275.5 343.12109375 275.5 343.12109375 272.5 342.12109375 C272.39175157 340.51841555 272.31429355 338.91363627 272.25 337.30859375 C272.20359375 336.41527344 272.1571875 335.52195312 272.109375 334.6015625 C272.5 332.12109375 272.5 332.12109375 274.10522461 330.48925781 C277.27545363 328.67806774 279.56584006 328.75221618 283.20703125 328.75 C284.51607422 328.73259766 285.82511719 328.71519531 287.17382812 328.69726562 C289.24069094 328.68722637 291.30738148 328.68358951 293.37426758 328.68530273 C304.18960909 328.86393654 304.18960909 328.86393654 313.5 324.12109375 C316.11192306 320.52969955 316.5 318.57752478 316.5 314.12109375 C315.73453645 309.64012176 313.67472792 307.29582167 310.5 304.12109375 C307.63688612 302.68953681 305.11491517 302.93798462 301.91796875 302.875 C300.58007187 302.84204993 299.2421814 302.80883849 297.90429688 302.77539062 C295.79781683 302.72807878 293.69136061 302.68366592 291.5847168 302.64428711 C289.5496877 302.60437521 287.51519686 302.55286819 285.48046875 302.5 C284.26254639 302.47494385 283.04462402 302.4498877 281.78979492 302.42407227 C278.3862927 302.11062171 275.01357209 301.63466584 272.5 299.12109375 C272.02738968 291.79563382 272.02738968 291.79563382 273.62109375 289.52099609 C276.35818781 287.4816903 278.50583379 287.73562673 281.890625 287.71484375 C283.79134766 287.68197266 283.79134766 287.68197266 285.73046875 287.6484375 C287.07030008 287.63765086 288.410146 287.62854999 289.75 287.62109375 C302.82878733 287.96968114 302.82878733 287.96968114 313.875 281.93359375 C315.95279119 278.33741668 316.71947906 275.27431295 316.5 271.12109375 C314.89479384 267.40377421 312.53730066 264.77873183 309.5 262.12109375 C306.01668071 260.95998732 303.20530456 260.96121081 299.53125 260.91015625 C298.14191507 260.88209911 296.75259229 260.85343473 295.36328125 260.82421875 C293.1775736 260.78289545 290.99209579 260.74599875 288.80615234 260.71972656 C286.69321225 260.69214373 284.58129625 260.64629172 282.46875 260.59765625 C281.20482422 260.57783691 279.94089844 260.55801758 278.63867188 260.53759766 C275.5 260.12109375 275.5 260.12109375 273.59155273 258.71240234 C272.23434914 256.73381746 272.06702395 255.50973858 272.0625 253.12109375 C272.04316406 252.44046875 272.02382813 251.75984375 272.00390625 251.05859375 C272.5 249.12109375 272.5 249.12109375 274.09594727 247.52319336 C277.3353354 245.63390667 279.72287172 245.75218657 283.4609375 245.75 C284.83333579 245.73261465 286.20573157 245.7150303 287.578125 245.69726562 C289.72628491 245.68721145 291.87427851 245.68359318 294.02246094 245.68530273 C296.10661441 245.68171267 298.1895098 245.65429882 300.2734375 245.625 C302.13621338 245.62222046 302.13621338 245.62222046 304.03662109 245.61938477 C308.14482393 245.0283202 310.28437556 243.69941636 313.5 241.12109375 C315.90943467 237.70125099 316.74719111 235.16974319 316.4375 231.05859375 C315.75840686 227.1980969 314.34355487 224.88340419 311.5 222.12109375 C307.88815865 219.71381454 304.27227277 219.82806565 300.07617188 219.83398438 C298.96304123 219.82373482 298.96304123 219.82373482 297.8274231 219.8132782 C296.21783976 219.79970595 294.60821349 219.79064255 292.99858093 219.78556824 C290.44083862 219.77725301 287.88344893 219.75671843 285.32580566 219.73303223 C279.88392323 219.68482885 274.44200476 219.65194466 269 219.62109375 C262.71754625 219.58527604 256.43526208 219.5429947 250.15296936 219.4851532 C247.65171924 219.46530378 245.15060385 219.45680631 242.64929199 219.44885254 C218.70598135 219.2930529 218.70598135 219.2930529 211.1875 212.90234375 C205.46458765 206.86149182 203.38466839 201.2733604 203.3581543 193.04248047 C203.34760262 191.19938797 203.34760262 191.19938797 203.33683777 189.31906128 C203.33502188 188.66481045 203.33320599 188.01055962 203.33133507 187.336483 C203.32412867 185.27501213 203.30842896 183.21377372 203.28999329 181.15237427 C203.23773781 175.29237165 203.18963255 169.43249593 203.17407227 163.57226562 C203.16391631 159.98176344 203.13439994 156.39184763 203.09275246 152.80157852 C203.07465395 150.78673096 203.07707516 148.77173214 203.08000183 146.75680542 C202.96556976 138.09931162 202.03321315 130.5514118 196.5 123.61328125 C195.51 122.81277344 195.51 122.81277344 194.5 121.99609375 C193.51 121.15691406 193.51 121.15691406 192.5 120.30078125 C188.86740812 118.15811963 186.85546005 118.88412038 183.5 121.12109375 Z M30.5 238.12109375 C30.5 280.03109375 30.5 321.94109375 30.5 365.12109375 C47 365.12109375 63.5 365.12109375 80.5 365.12109375 C80.5 323.21109375 80.5 281.30109375 80.5 238.12109375 C64 238.12109375 47.5 238.12109375 30.5 238.12109375 Z " fill="#000000" transform="translate(177.5,126.87890625)"/>
<path d="M0 0 C0.8971875 -0.01289063 1.794375 -0.02578125 2.71875 -0.0390625 C7.57606628 1.12068998 10.30927782 3.85787484 13.01806641 7.87792969 C15.12334819 11.40276902 17.10838447 14.98741686 19.08789062 18.58398438 C19.58611328 19.45732422 20.08433594 20.33066406 20.59765625 21.23046875 C21.03601807 22.02606201 21.47437988 22.82165527 21.92602539 23.64135742 C24.80821958 27.27371787 29.00212231 27.84255793 33.37109375 28.73828125 C34.72750977 29.0331543 34.72750977 29.0331543 36.11132812 29.33398438 C37.98934233 29.73502542 39.86959476 30.1257301 41.75195312 30.50585938 C47.63905348 31.80898266 51.34053633 33.17890662 55.5 37.625 C57.59924394 41.73632204 57.74061632 45.54222658 56.75 50 C53.5435809 56.19618825 47.78351432 61.55215364 42.734375 66.27734375 C39.8244898 69.16214373 39.19667219 71.43302954 39.125 75.375 C39.24487509 78.1862641 39.45015116 80.98447848 39.66845703 83.78955078 C39.78947528 85.36938303 39.90489821 86.94965242 40.01513672 88.53027344 C40.12799897 90.10650821 40.25789985 91.68163742 40.40673828 93.25488281 C40.77935104 98.22377711 40.29876651 101.30375634 37.5 105.625 C33.72496173 108.96108033 30.89984897 110.0718682 25.86108398 109.96777344 C20.06718729 109.12663695 14.74105644 106.13783623 9.45703125 103.73632812 C2.67160882 100.61854211 2.67160882 100.61854211 -4.5 101.625 C-8.26587329 103.22913668 -11.9410925 105.00354997 -15.60351562 106.83007812 C-20.95035904 109.35079799 -25.57658391 110.49766246 -31.5 109.625 C-35.86865272 107.60247559 -38.19531544 105.40695165 -40.02197266 100.91967773 C-40.85934396 96.90003887 -40.05022206 93.04515767 -39.4921875 89.0168457 C-37.51404595 77.87361306 -37.51404595 77.87361306 -40.59375 67.46875 C-43.21695155 64.42338702 -46.32575892 62.07163354 -49.5 59.625 C-51.5390625 57.22265625 -51.5390625 57.22265625 -53.125 55 C-53.57101563 54.38898437 -54.01703125 53.77796875 -54.4765625 53.1484375 C-57.15259109 49.16503617 -56.95349641 45.29763263 -56.5 40.625 C-54.858191 36.84883931 -52.95098766 34.81077569 -49.5 32.625 C-46.84960938 32.06689453 -46.84960938 32.06689453 -43.84375 31.7578125 C-31.55334878 30.40732139 -31.55334878 30.40732139 -21.20507812 24.37353516 C-18.09560015 20.00780866 -15.91176253 15.40364992 -13.796875 10.49609375 C-11.04867326 4.12766472 -7.45810683 -0.10715671 0 0 Z M-0.5 19.625 C-0.80180176 20.14932617 -1.10360352 20.67365234 -1.41455078 21.21386719 C-2.80405196 23.60933967 -4.21421035 25.99200816 -5.625 28.375 C-6.099375 29.2 -6.57375 30.025 -7.0625 30.875 C-11.08317715 37.6123509 -14.77926586 40.98841279 -22.4609375 43.109375 C-24.26274468 43.54338695 -26.06756848 43.9650405 -27.875 44.375 C-28.80183594 44.59542969 -29.72867188 44.81585938 -30.68359375 45.04296875 C-32.95341755 45.58117439 -35.22523546 46.10815308 -37.5 46.625 C-34.82968461 51.42643248 -31.42268163 55.06631315 -27.65625 59.02734375 C-21.92657191 65.92994508 -22.23910276 71.38381849 -22.8125 80 C-22.87373047 81.11761719 -22.93496094 82.23523438 -22.99804688 83.38671875 C-23.15067409 86.13400864 -23.31842917 88.87949645 -23.5 91.625 C-18.21430885 89.93420094 -13.14269027 88.05813825 -8.0625 85.8125 C1.30031545 82.23642465 7.18971699 84.94513329 16.0625 88.75 C17.26003906 89.28882812 18.45757812 89.82765625 19.69140625 90.3828125 C22.14058564 91.69241426 22.14058564 91.69241426 23.5 91.625 C23.43099487 90.74146851 23.43099487 90.74146851 23.3605957 89.84008789 C23.15916609 87.12358202 22.98570746 84.40594557 22.8125 81.6875 C22.73966797 80.76130859 22.66683594 79.83511719 22.59179688 78.88085938 C22.09584736 70.56641162 23.0716679 64.11632695 28.63671875 57.68359375 C29.80568118 56.46238719 30.98953707 55.25527132 32.1875 54.0625 C32.79400391 53.43537109 33.40050781 52.80824219 34.02539062 52.16210938 C35.50391553 50.63701676 37.00015186 49.12912731 38.5 47.625 C35.75131782 45.79254522 34.57239879 45.27662808 31.48046875 44.6953125 C30.70509766 44.53933594 29.92972656 44.38335937 29.13085938 44.22265625 C27.5146971 43.91001735 25.89750777 43.6026373 24.27929688 43.30078125 C18.51270812 42.12743068 13.74714731 40.75307409 10.13549805 35.72558594 C8.76425607 33.49778664 7.49372614 31.23877723 6.25 28.9375 C5.39517677 27.38940495 4.5360138 25.84369575 3.671875 24.30078125 C3.3015918 23.61927002 2.93130859 22.93775879 2.54980469 22.2355957 C1.58309076 20.45608586 1.58309076 20.45608586 -0.5 19.625 Z " fill="#000000" transform="translate(183.5,-0.625)"/>
<path d="M0 0 C3.14649784 2.61876244 5.20997469 5.16504638 6.97265625 8.8125 C10.72419618 16.75116237 10.72419618 16.75116237 17.33398438 22.17822266 C22.42008025 23.89310064 27.59608596 24.71489479 32.88134766 25.55712891 C36.632374 26.34122222 39.14057101 27.71217871 41.26953125 30.90234375 C42.72230957 35.07422588 43.00413192 38.67497395 42 43 C38.74024533 48.12544405 34.63085318 52.49546463 30.17578125 56.60546875 C27.15026559 60.27236781 27.7215354 63.91768867 28.0625 68.45898438 C28.165625 69.48314453 28.26875 70.50730469 28.375 71.5625 C29.35904076 82.16753382 29.35904076 82.16753382 27.67578125 86.0703125 C24.39856772 89.84407354 22.51522721 91.86328777 17.36328125 92.328125 C11.72476989 92.20788305 7.18995295 89.76733987 2.1796875 87.40039062 C-2.32140886 85.38223601 -5.09638534 84.47091586 -10 86 C-12.31402002 86.96909655 -14.60543533 87.99342889 -16.875 89.0625 C-22.16780066 91.43609347 -26.18646516 92.9513057 -32 92 C-35.43140129 90.62743948 -36.71410041 89.41406147 -38.8125 86.375 C-40.69386271 81.02796914 -40.36652292 76.22253263 -39.44921875 70.66015625 C-38.34181528 63.6025188 -38.34181528 63.6025188 -40.76171875 57.125 C-43.07477949 54.61695398 -45.48479361 52.3035306 -48 50 C-51.49826721 46.07055101 -53.85063661 42.30635293 -54.19140625 36.98828125 C-53.84647975 33.40526927 -52.58876361 30.50627849 -50 28 C-46.26774208 26.05959725 -43.15828288 24.90681645 -38.984375 24.46484375 C-30.82677978 23.57832576 -30.82677978 23.57832576 -24.21044922 19.10546875 C-21.02308733 14.65718303 -18.49969785 9.88506832 -16.1940918 4.92944336 C-14.45137168 2.11351265 -12.22834719 0.50828159 -9.1875 -0.75 C-5.86025601 -1.13025646 -3.25748841 -0.80008487 0 0 Z M-6 20 C-6.968351 21.60402999 -7.93341336 23.21015234 -8.88037109 24.8269043 C-14.73575591 34.66206429 -14.73575591 34.66206429 -18.875 36.1875 C-20.24173276 36.49736654 -21.61858997 36.7640296 -23 37 C-25.00278747 37.55249309 -27.00272741 38.11539123 -29 38.6875 C-30.66566192 39.12880988 -32.33198595 39.56766547 -34 40 C-31.27342872 43.66269409 -28.54967831 47.31661616 -25.6875 50.875 C-23.32797282 53.84625645 -22.87615286 55.41370564 -22.90234375 59.1328125 C-22.90556641 59.93847656 -22.90878906 60.74414062 -22.91210938 61.57421875 C-22.92048828 62.41597656 -22.92886719 63.25773437 -22.9375 64.125 C-22.94201172 64.97449219 -22.94652344 65.82398438 -22.95117188 66.69921875 C-22.96297126 68.79950909 -22.98090694 70.8997633 -23 73 C-19.41952599 72.40219439 -16.47497426 71.39392995 -13.1875 69.875 C-7.32533301 67.49891456 -3.42836589 67.60512564 2.390625 69.97265625 C3.94689769 70.67297896 5.49149487 71.40019479 7.01953125 72.16015625 C9.10178984 73.19520497 9.10178984 73.19520497 12 73 C11.96519531 71.75863281 11.93039062 70.51726562 11.89453125 69.23828125 C11.86638416 67.59636774 11.83908499 65.95443954 11.8125 64.3125 C11.78736328 63.49587891 11.76222656 62.67925781 11.73632812 61.83789062 C11.64445529 54.27369362 14.13335001 50.7387795 19.1875 45.1875 C19.90292969 44.39730469 20.61835938 43.60710938 21.35546875 42.79296875 C21.89816406 42.20128906 22.44085938 41.60960938 23 41 C19.94476552 37.94476552 15.80250502 37.63265625 11.67382812 36.76367188 C5.5384001 35.30112177 2.64032455 32.48589008 -0.765625 27.32421875 C-1.50039063 26.01904297 -1.50039063 26.01904297 -2.25 24.6875 C-3.14282262 23.11125389 -4.05258371 21.5440487 -5 20 C-5.33 20 -5.66 20 -6 20 Z " fill="#000000" transform="translate(316,17)"/>
<path d="M0 0 C4.14674859 3.56646459 6.71292583 7.46683115 9.3125 12.1875 C9.67150391 12.81591797 10.03050781 13.44433594 10.40039062 14.09179688 C13 18.72157738 13 18.72157738 13 21 C14.2375 21.103125 15.475 21.20625 16.75 21.3125 C25.50377822 22.32201945 33.74103343 23.40271092 40 30 C41.13557238 32.27114476 41.23084318 33.72293619 41.3125 36.25 C41.36857422 37.37148437 41.36857422 37.37148437 41.42578125 38.515625 C40.40305396 44.48309801 36.07635482 47.79075078 31.6875 51.5 C27.88736124 55.51064207 26.70083605 57.81076443 26.6796875 63.359375 C26.81047081 66.30187686 27.05592438 69.19396179 27.39916992 72.11914062 C28.10294776 78.14879042 28.0000002 81.65248191 25 87 C22.98060136 89.5242483 22.15499404 89.94833532 19 91 C12.05587762 91.62815481 7.33663882 89.26813016 1.22851562 86.40039062 C-3.28589134 84.38902118 -6.08952219 83.46671487 -11 85 C-13.31402002 85.96909655 -15.60543533 86.99342889 -17.875 88.0625 C-23.1762996 90.4308403 -27.18374748 92.03861652 -33 91 C-37.03753877 88.90646138 -39.36821711 87.24113158 -41 83 C-41.23046875 80.40625 -41.23046875 80.40625 -41.1875 77.5 C-41.18363281 76.43910156 -41.17976563 75.37820312 -41.17578125 74.28515625 C-41 71 -41 71 -40.41796875 67.93359375 C-39.52390127 63.00014223 -39.15336749 60.26749238 -42.01953125 55.9765625 C-44.57630595 53.1839506 -47.25086404 50.60120039 -50 48 C-54.08565399 43.43698438 -55.27866074 40.07694772 -55 34 C-53.48079747 29.68226649 -51.82421815 27.43421738 -48 25 C-45.77685547 24.47021484 -45.77685547 24.47021484 -43.3671875 24.2109375 C-33.46713009 23.05576784 -33.46713009 23.05576784 -25.12207031 18.17236328 C-22.55636575 14.63866634 -20.71992259 10.90652683 -18.9375 6.93359375 C-16.96618076 2.54822641 -14.5101362 -0.04149809 -9.93359375 -1.7890625 C-6.46372008 -2.16759417 -3.13647264 -1.43681987 0 0 Z M-7 19 C-8.47938425 21.10671807 -9.84722081 23.27697147 -11.234375 25.4453125 C-11.81703125 26.28835937 -12.3996875 27.13140625 -13 28 C-13.71027344 29.03125 -14.42054687 30.0625 -15.15234375 31.125 C-18.32753893 34.86988719 -22.17891711 35.74087912 -26.8125 36.875 C-27.99489258 37.19210938 -27.99489258 37.19210938 -29.20117188 37.515625 C-31.12906757 38.02973052 -33.06393157 38.51758383 -35 39 C-30.93045657 44.47354665 -30.93045657 44.47354665 -26.6875 49.8125 C-24.33708788 52.85933053 -23.87424898 55.27511385 -23.90234375 59.01171875 C-23.90556641 59.76904297 -23.90878906 60.52636719 -23.91210938 61.30664062 C-23.92048828 62.09232422 -23.92886719 62.87800781 -23.9375 63.6875 C-23.94201172 64.48478516 -23.94652344 65.28207031 -23.95117188 66.10351562 C-23.9629415 68.06904257 -23.98087652 70.03453085 -24 72 C-23.41992188 71.80664062 -22.83984375 71.61328125 -22.2421875 71.4140625 C-20.61991618 70.87330539 -18.99613217 70.33707138 -17.37109375 69.8046875 C-15.53744395 69.18239449 -13.73028155 68.48174757 -11.9375 67.75 C-5.23534899 66.03881251 0.0722157 68.20228781 6.01953125 71.16015625 C8.10178984 72.19520497 8.10178984 72.19520497 11 72 C10.89558594 70.081875 10.89558594 70.081875 10.7890625 68.125 C10.19935405 52.71050758 10.19935405 52.71050758 13.75 48.125 C14.80267938 47.05236461 15.88426426 46.00688347 17 45 C17.78375 44.01 18.5675 43.02 19.375 42 C19.91125 41.34 20.4475 40.68 21 40 C17.67291394 36.67291394 12.96891016 36.37605946 8.48046875 35.29296875 C2.57308152 33.09841749 -0.23981296 29.03454277 -3.25 23.6875 C-4.14282262 22.11125389 -5.05258371 20.5440487 -6 19 C-6.33 19 -6.66 19 -7 19 Z " fill="#000000" transform="translate(57,18)"/>
</svg>
