<?xml version="1.0" encoding="UTF-8"?>
<svg version="1.1" xmlns="http://www.w3.org/2000/svg" width="512" height="512">
<path d="M0 0 C8.52497691 8.29633769 11.29975467 17.34595677 11.6328125 28.93359375 C10.85150463 32.94807697 9.27134403 34.6982218 6.0390625 36.984375 C2.16465659 39.31596713 -1.82318 41.40220684 -5.8359375 43.484375 C-8.19642388 44.73103667 -10.55589224 45.97944924 -12.9140625 47.23046875 C-13.50913605 47.5451561 -14.10420959 47.85984344 -14.71731567 48.18406677 C-20.40207567 51.19803618 -25.99936475 54.35566099 -31.5859375 57.546875 C-39.32655581 61.95786454 -47.11558422 66.26248701 -54.9609375 70.484375 C-63.73927187 75.21095255 -72.4455268 80.04874508 -81.11425781 84.97314453 C-91.87503916 91.08283248 -102.69888392 97.07786313 -113.52148438 103.07714844 C-119.16995855 106.20930916 -124.81530607 109.34709418 -130.4609375 112.484375 C-132.71092214 113.73440265 -134.96092215 114.98440263 -137.2109375 116.234375 C-138.3246875 116.853125 -139.4384375 117.471875 -140.5859375 118.109375 C-143.9609375 119.984375 -147.3359375 121.859375 -150.7109375 123.734375 C-151.82597656 124.3538501 -152.94101562 124.9733252 -154.08984375 125.61157227 C-156.32679217 126.85430339 -158.56377105 128.09697969 -160.80078125 129.33959961 C-166.01200019 132.23442565 -171.2229391 135.12975156 -176.43273926 138.02713013 C-178.85892517 139.37638329 -181.28529127 140.72531224 -183.71166992 142.07421875 C-185.39714704 143.01140519 -187.08236765 143.94905291 -188.76757812 144.88671875 C-190.83930408 146.03838852 -192.914078 147.18459625 -194.9921875 148.32470703 C-196.97077697 149.43082966 -198.92975191 150.57279302 -200.8671875 151.74951172 C-201.7953125 152.30010254 -202.7234375 152.85069336 -203.6796875 153.41796875 C-204.8852832 154.1593811 -204.8852832 154.1593811 -206.11523438 154.91577148 C-215.09609419 158.28821687 -224.62300707 154.56272213 -233.46484375 152.19921875 C-235.02834322 151.7900372 -236.5921023 151.38184655 -238.15609741 150.9745636 C-242.39723247 149.86724547 -246.63472251 148.7465291 -250.87168503 147.62336731 C-255.32785092 146.44453703 -259.78722397 145.27797095 -264.24633789 144.11035156 C-270.85293924 142.37920882 -277.45839929 140.64381207 -284.06260967 138.90357018 C-296.27816127 135.68490261 -308.50040316 132.49242835 -320.72576332 129.31123543 C-328.79947639 127.21020892 -336.8725241 125.10662534 -344.94569016 123.00349808 C-346.91928735 122.4894212 -348.89291268 121.97545233 -350.8665657 121.46158981 C-356.5013721 119.99445107 -362.13563175 118.52525056 -367.76900101 117.05260277 C-369.48521 116.60434435 -371.20162506 116.1568741 -372.91825485 115.71022987 C-375.25977018 115.10088086 -377.6005526 114.48879422 -379.94116211 113.87597656 C-380.97406042 113.60818846 -380.97406042 113.60818846 -382.02782536 113.3349905 C-386.73260748 112.09854001 -386.73260748 112.09854001 -388.9609375 110.984375 C-388.91453125 111.58765625 -388.868125 112.1909375 -388.8203125 112.8125 C-388.78421875 113.61171875 -388.748125 114.4109375 -388.7109375 115.234375 C-388.66453125 116.02328125 -388.618125 116.8121875 -388.5703125 117.625 C-389.11981117 120.94397195 -390.3259085 121.92612517 -392.9609375 123.984375 C-396.1484375 124.49230957 -396.1484375 124.49230957 -399.9609375 124.50195312 C-401.00556152 124.51246704 -401.00556152 124.51246704 -402.07128906 124.52319336 C-404.36824682 124.54076696 -406.66396771 124.52915419 -408.9609375 124.515625 C-410.55989823 124.51832013 -412.15885737 124.52220273 -413.7578125 124.52722168 C-417.10692976 124.53311582 -420.45561993 124.52455692 -423.8046875 124.50585938 C-428.09572341 124.48306935 -432.38575861 124.49619296 -436.67675781 124.52014923 C-439.97794116 124.5346098 -443.27888761 124.53000015 -446.58007812 124.51963806 C-448.16211058 124.51697146 -449.74416461 124.52023822 -451.32617188 124.52955627 C-453.53833913 124.53972679 -455.7488905 124.5242169 -457.9609375 124.50195312 C-459.2190625 124.49877075 -460.4771875 124.49558838 -461.7734375 124.49230957 C-465.61988658 123.87937013 -466.55684941 122.97729166 -468.9609375 119.984375 C-469.46430206 117.62927246 -469.46430206 117.62927246 -469.46887207 114.97460938 C-469.48579102 113.46048462 -469.48579102 113.46048462 -469.50305176 111.91577148 C-469.49090637 110.26363647 -469.49090637 110.26363647 -469.47851562 108.578125 C-469.4855249 107.4135376 -469.49253418 106.2489502 -469.49975586 105.04907227 C-469.51738182 101.19393167 -469.50569591 97.33952326 -469.4921875 93.484375 C-469.49488107 90.80923547 -469.49875603 88.13411831 -469.50378418 85.45898438 C-469.51105947 79.8501795 -469.50147621 74.24158537 -469.48242188 68.6328125 C-469.46065307 62.15019593 -469.46770455 55.66808258 -469.4897275 49.18547821 C-469.50788509 43.61760911 -469.51043816 38.04989141 -469.49997282 32.48200226 C-469.49373972 29.1574183 -469.49446948 25.83312248 -469.50611877 22.50854492 C-469.51625498 18.80222343 -469.50082235 15.09687393 -469.47851562 11.390625 C-469.48661255 10.28920166 -469.49470947 9.18777832 -469.50305176 8.05297852 C-469.49177246 7.04356201 -469.48049316 6.03414551 -469.46887207 4.99414062 C-469.46736397 4.11810181 -469.46585587 3.24206299 -469.46430206 2.33947754 C-468.78832785 -0.82321744 -467.46446604 -2.03052369 -464.9609375 -4.015625 C-461.7734375 -4.52355957 -461.7734375 -4.52355957 -457.9609375 -4.53320312 C-457.26452148 -4.5402124 -456.56810547 -4.54722168 -455.85058594 -4.55444336 C-453.55362818 -4.57201696 -451.25790729 -4.56040419 -448.9609375 -4.546875 C-447.36197677 -4.54957013 -445.76301763 -4.55345273 -444.1640625 -4.55847168 C-440.81494524 -4.56436582 -437.46625507 -4.55580692 -434.1171875 -4.53710938 C-429.82615159 -4.51431935 -425.53611639 -4.52744296 -421.24511719 -4.55139923 C-417.94393384 -4.5658598 -414.64298739 -4.56125015 -411.34179688 -4.55088806 C-409.75976442 -4.54822146 -408.17771039 -4.55148822 -406.59570312 -4.56080627 C-404.38353587 -4.57097679 -402.1729845 -4.5554669 -399.9609375 -4.53320312 C-398.07375 -4.52842957 -398.07375 -4.52842957 -396.1484375 -4.52355957 C-392.39269473 -3.92507437 -391.1922221 -3.04725423 -388.9609375 -0.015625 C-388.5703125 3 -388.5703125 3 -388.7109375 6.234375 C-388.74703125 7.31203125 -388.783125 8.3896875 -388.8203125 9.5 C-388.86671875 10.31984375 -388.913125 11.1396875 -388.9609375 11.984375 C-387.10251221 11.82727051 -387.10251221 11.82727051 -385.20654297 11.66699219 C-345.97731671 8.68472228 -313.56683975 16.82177515 -276.61641502 28.61238861 C-267.45807929 31.53277836 -258.27900437 34.37515402 -249.05545425 37.08327103 C-247.51229802 37.539056 -245.97096276 38.00105778 -244.43163681 38.46961594 C-242.29636078 39.11838398 -240.15569103 39.74469976 -238.01220703 40.36572266 C-236.79292511 40.72751617 -235.57364319 41.08930969 -234.31741333 41.46206665 C-228.00269701 42.4447131 -222.98565951 39.13073466 -217.49365234 36.31665039 C-216.77078033 35.95054153 -216.04790833 35.58443268 -215.3031311 35.20722961 C-213.74071583 34.41556002 -212.17918393 33.62214507 -210.61845016 32.8271656 C-208.13880527 31.56520109 -205.6559545 30.30977244 -203.17202759 29.05625916 C-196.11208209 25.49281694 -189.05542002 21.92301161 -182.00732422 18.33618164 C-177.68735762 16.13830267 -173.36145738 13.95250113 -169.0316658 11.77404594 C-167.39255923 10.9464981 -165.75567437 10.11453299 -164.12119675 9.27787971 C-149.35614763 1.72311326 -136.56222853 -3.52735423 -119.98828125 0.9453125 C-109.24838565 4.63152183 -102.0265412 11.63651821 -95.9609375 20.984375 C-84.53151867 15.31735542 -73.10889253 9.64555765 -61.8359375 3.671875 C-60.30340894 2.86323666 -58.77085753 2.05464164 -57.23828125 1.24609375 C-55.14057059 0.13874682 -53.04438313 -0.97090821 -50.95361328 -2.09130859 C-33.44409404 -11.4519109 -16.21576735 -13.40809032 0 0 Z M-452.9609375 11.984375 C-452.9609375 43.664375 -452.9609375 75.344375 -452.9609375 107.984375 C-437.1209375 107.984375 -421.2809375 107.984375 -404.9609375 107.984375 C-404.9609375 76.304375 -404.9609375 44.624375 -404.9609375 11.984375 C-420.8009375 11.984375 -436.6409375 11.984375 -452.9609375 11.984375 Z M-53.8359375 18.546875 C-55.42697431 19.37267555 -57.01828468 20.19794922 -58.60986328 21.02270508 C-67.07371948 25.41376867 -75.52427833 29.83105102 -83.95166016 34.29174805 C-91.01393906 38.02756824 -98.11231995 41.69325411 -105.2109375 45.359375 C-114.01156406 49.9048065 -122.80705388 54.45952951 -131.5859375 59.046875 C-137.57918871 62.17860736 -143.5749695 65.30525361 -149.578125 68.41796875 C-150.71000244 69.00489502 -151.84187988 69.59182129 -153.00805664 70.1965332 C-155.29520936 71.38078119 -157.58344581 72.56293868 -159.87280273 73.74291992 C-165.44773461 76.62055027 -170.99681221 79.53338046 -176.50390625 82.5390625 C-177.5403125 83.09851563 -178.57671875 83.65796875 -179.64453125 84.234375 C-181.58818225 85.28581689 -183.52495122 86.35012502 -185.453125 87.4296875 C-190.95476554 90.38773352 -194.7015687 91.67283532 -200.9609375 90.984375 C-202.9609375 89.984375 -202.9609375 89.984375 -203.9609375 87.984375 C-204.35918442 85.25353897 -204.51835146 82.69493701 -203.9609375 79.984375 C-201.52959829 77.00120259 -198.52609755 75.56061241 -195.1328125 73.83203125 C-194.26784653 73.38813553 -194.26784653 73.38813553 -193.38540649 72.93527222 C-191.49653717 71.96725072 -189.6037474 71.00716495 -187.7109375 70.046875 C-186.38850348 69.37052014 -185.06640389 68.69351102 -183.74462891 68.01586914 C-181.07392501 66.64694263 -178.4020869 65.28026993 -175.72949219 63.91503906 C-170.58192188 61.28200994 -165.45790759 58.60428902 -160.3359375 55.921875 C-154.19591566 52.70879933 -148.04863368 49.51074752 -141.88671875 46.33984375 C-140.06667029 45.40169874 -138.24673449 44.46333549 -136.42681885 43.52493286 C-134.70879151 42.64044685 -132.98894892 41.75948954 -131.26904297 40.87866211 C-124.67840581 37.47985172 -118.26394499 33.89183317 -111.9609375 29.984375 C-115.36872142 23.03249581 -119.11607784 19.58035448 -126.2734375 16.609375 C-135.19761424 15.09680267 -142.20308944 17.51254792 -150.09375 21.53515625 C-151.55604538 22.25690788 -151.55604538 22.25690788 -153.04788208 22.99324036 C-156.36234549 24.63754089 -159.66246236 26.30824422 -162.9609375 27.984375 C-164.19028486 28.60679345 -165.41973892 29.2290012 -166.64929199 29.85101318 C-170.5858078 31.84354451 -174.51972137 33.8411772 -178.453125 35.83984375 C-179.45270611 36.34762548 -179.45270611 36.34762548 -180.47248077 36.86566544 C-182.50913961 37.90039881 -184.54560242 38.93551717 -186.58203125 39.97070312 C-187.25870724 40.31446424 -187.93538322 40.65822536 -188.63256454 41.01240349 C-192.1115435 42.7810615 -195.58680171 44.55651608 -199.05615234 46.34399414 C-202.48533232 48.11016027 -205.92314474 49.8583738 -209.3673439 51.59505653 C-210.65830299 52.2500147 -211.9460477 52.91135383 -213.23022079 53.57951927 C-215.01577451 54.50756693 -216.81411651 55.41088131 -218.61279297 56.31323242 C-219.62485809 56.83076584 -220.63692322 57.34829926 -221.67965698 57.8815155 C-229.54341047 60.52457365 -236.48164709 58.59871817 -244.15087891 56.13867188 C-245.61968506 55.68513084 -245.61968506 55.68513084 -247.11816406 55.22242737 C-249.23926069 54.56739959 -251.35886354 53.90751899 -253.47710037 53.24330139 C-259.25444877 51.44157984 -265.05316457 49.71046319 -270.84765625 47.96484375 C-278.16528713 45.75422783 -285.47605311 43.52597686 -292.76708984 41.22900391 C-326.19859076 30.72494391 -353.68462834 26.27367405 -388.9609375 27.984375 C-388.9609375 49.434375 -388.9609375 70.884375 -388.9609375 92.984375 C-383.18494969 94.90970427 -377.52699488 96.71282353 -371.65234375 98.2265625 C-370.86952152 98.4309066 -370.0866993 98.6352507 -369.28015518 98.84578705 C-367.58509174 99.28776888 -365.88965598 99.7283248 -364.1938858 100.16758728 C-361.45130675 100.87806069 -358.70978803 101.59251313 -355.96844482 102.30773926 C-346.86655581 104.68038197 -337.7606597 107.03739721 -328.65264511 109.38640594 C-323.40589941 110.73984799 -318.15985853 112.09600729 -312.9140625 113.453125 C-311.33944118 113.86015404 -311.33944118 113.86015404 -309.73300934 114.27540588 C-296.03713879 117.82041421 -282.38828369 121.49942798 -268.77555847 125.35107422 C-263.77878116 126.75904497 -258.77392383 128.13806341 -253.7689743 129.5166626 C-249.87581582 130.59244002 -245.99130047 131.68931702 -242.11865234 132.83691406 C-224.98380437 138.78907778 -224.98380437 138.78907778 -207.74668884 136.98374939 C-205.19030666 135.56984898 -202.86686211 133.98508157 -200.56414795 132.19000244 C-198.03229587 130.28602886 -195.24539898 128.90997635 -192.44140625 127.44921875 C-190.34180279 126.2769182 -188.24418513 125.10105487 -186.1484375 123.921875 C-184.39692585 122.94268345 -182.64541085 121.96349784 -180.89370728 120.98464966 C-179.09960014 119.98155559 -177.30633278 118.97697329 -175.51318359 117.97216797 C-169.83784403 114.79386146 -164.14846592 111.64079788 -158.4609375 108.484375 C-156.21087603 107.23448565 -153.96087613 105.98448546 -151.7109375 104.734375 C-57.2109375 52.234375 -57.2109375 52.234375 -53.83032227 50.35668945 C-51.59854731 49.11652699 -49.36725796 47.87549018 -47.13647461 46.63354492 C-41.86940731 43.70259911 -36.59784898 40.78079496 -31.30862427 37.89004517 C-28.81239764 36.52506297 -26.31894136 35.15506384 -23.82568359 33.78466797 C-22.06615678 32.82028901 -20.30265365 31.86317614 -18.5390625 30.90625 C-17.47300781 30.31972656 -16.40695312 29.73320312 -15.30859375 29.12890625 C-14.37023682 28.61690674 -13.43187988 28.10490723 -12.46508789 27.57739258 C-9.91841145 25.95732201 -8.00331671 24.19558051 -5.9609375 21.984375 C-9.40472306 15.09680388 -13.28678964 10.35439624 -20.6484375 7.609375 C-32.54300393 5.36511718 -43.66585302 13.2296817 -53.8359375 18.546875 Z " fill="#000000" transform="translate(484.9609375,340.015625)"/>
<path d="M0 0 C4.2028668 1.75265568 8.10907748 3.93570291 12.0625 6.1875 C13.20936279 6.82316895 14.35622559 7.45883789 15.5378418 8.11376953 C19.03738749 10.05468641 22.51900881 12.0259988 26 14 C27.93205946 15.08765218 29.86433663 16.17491773 31.796875 17.26171875 C35.52683693 19.36420457 39.25074263 21.47705649 42.97265625 23.59375 C49.70114231 27.409806 56.47358458 31.14504675 63.25 34.875 C65.72137851 36.23563287 68.19273962 37.59629734 70.6640625 38.95703125 C71.58210411 39.46246208 71.58210411 39.46246208 72.51869202 39.97810364 C82.22868271 45.32630142 91.91243986 50.72184934 101.60009766 56.11035156 C105.13185513 58.07328441 108.6652773 60.03319064 112.19921875 61.9921875 C117.84674483 65.12286101 123.49019908 68.26077609 129.13085938 71.40380859 C131.66249946 72.81223804 134.19791224 74.21356656 136.734375 75.61328125 C138.01070656 76.32500122 139.28678039 77.03718373 140.5625 77.75 C141.59503906 78.32234375 142.62757813 78.8946875 143.69140625 79.484375 C146 81 146 81 148 84 C148.46411843 88.81528027 148.3376377 93.66460784 148.3125 98.5 C148.30976578 99.57293304 148.30976578 99.57293304 148.30697632 100.6675415 C148.0195813 167.9179759 125.5843504 233.74429435 78 282 C58.78204477 301.01836222 35.2855867 315.30796335 10.125 325 C8.98466309 325.45463623 8.98466309 325.45463623 7.82128906 325.91845703 C-1.24237286 329.26670351 -9.30489105 328.44387547 -18.375 325.5625 C-19.23005127 325.29590576 -20.08510254 325.02931152 -20.96606445 324.75463867 C-41.90181271 317.98147722 -60.4526318 307.508356 -77 293 C-77.82628906 292.29488281 -78.65257812 291.58976562 -79.50390625 290.86328125 C-129.58059667 247.2127076 -149.96340024 175.57340516 -155.83007812 111.515625 C-156.17648615 106.38719357 -156.26694422 101.26369187 -156.3125 96.125 C-156.34150391 95.01125 -156.37050781 93.8975 -156.40039062 92.75 C-156.40876953 91.68007812 -156.41714844 90.61015625 -156.42578125 89.5078125 C-156.44036377 88.54504395 -156.45494629 87.58227539 -156.4699707 86.59033203 C-155.85137778 83.18084066 -154.67959911 82.15088007 -152 80 C-150.25523315 78.89006496 -148.46759781 77.84593321 -146.65234375 76.85546875 C-145.58628906 76.26894531 -144.52023438 75.68242188 -143.421875 75.078125 C-142.27203125 74.45421875 -141.1221875 73.8303125 -139.9375 73.1875 C-138.72486053 72.5228645 -137.5126278 71.8574864 -136.30078125 71.19140625 C-133.78395452 69.80880532 -131.26541121 68.42940973 -128.74560547 67.05224609 C-122.98053944 63.89798634 -117.24167689 60.69656697 -111.5 57.5 C-109.25012305 56.24977854 -107.00012263 54.99977924 -104.75 53.75 C-103.63625 53.13125 -102.5225 52.5125 -101.375 51.875 C-22.8359375 8.2421875 -22.8359375 8.2421875 -19.80761719 6.57714844 C-18.022236 5.57422996 -16.25438162 4.53892856 -14.51269531 3.46191406 C-9.75536606 0.56606008 -5.64534631 -1.41975038 0 0 Z M-10.58984375 20.97265625 C-11.15696579 21.28682495 -11.72408783 21.60099365 -12.30839539 21.92468262 C-14.18700368 22.96664439 -16.06222081 24.01456028 -17.9375 25.0625 C-19.25353056 25.79392166 -20.56977698 26.52495505 -21.88623047 27.25561523 C-24.60074751 28.76313769 -27.31389559 30.27308053 -30.02587891 31.78515625 C-33.67492741 33.81959811 -37.32715063 35.84823457 -40.98046875 37.875 C-46.54121746 40.96042091 -52.09962287 44.05003168 -57.65722656 47.14111328 C-62.1446052 49.63650482 -66.63304511 52.12998366 -71.12158203 54.62329102 C-73.37004646 55.87231155 -75.61841918 57.12149719 -77.86669922 58.37084961 C-83.53988442 61.52330463 -89.21419621 64.6737013 -94.890625 67.8203125 C-105.98675429 73.97329161 -117.07252262 80.14387507 -128.125 86.375 C-129.10952148 86.92881348 -130.09404297 87.48262695 -131.10839844 88.05322266 C-132.4507959 88.8119165 -132.4507959 88.8119165 -133.8203125 89.5859375 C-135.00004639 90.25181885 -135.00004639 90.25181885 -136.20361328 90.93115234 C-137.95621194 91.87417543 -137.95621194 91.87417543 -139 93 C-139.56147094 102.60611248 -138.6536176 112.05324177 -137.375 121.5625 C-137.28730347 122.22341644 -137.19960693 122.88433289 -137.10925293 123.5652771 C-133.92941248 147.3160814 -128.65859164 170.28719839 -121 193 C-120.74782715 193.76022461 -120.4956543 194.52044922 -120.23583984 195.30371094 C-110.54509393 224.16424104 -94.94919155 250.00947436 -74 272 C-73.28328125 272.78117188 -72.5665625 273.56234375 -71.828125 274.3671875 C-56.08122024 291.00207561 -35.29569102 301.38238089 -14 309 C-12.81535156 309.42410156 -11.63070312 309.84820312 -10.41015625 310.28515625 C-2.89967839 311.85951759 3.19876972 309.46368035 10 306.5 C10.8252417 306.14470215 11.6504834 305.7894043 12.50073242 305.42333984 C60.6503617 284.23620824 94.83277658 243.32155422 114.06225586 195.05297852 C125.25852015 165.78341627 130.66868917 133.94241045 131.6875 102.6875 C131.74325195 101.7807251 131.79900391 100.8739502 131.85644531 99.93969727 C131.9472616 95.31572282 131.9472616 95.31572282 129.60327148 91.53320312 C127.47115477 90.15968394 125.29049516 89.08960128 123 88 C121.08232609 86.92801365 119.16993316 85.84654833 117.26171875 84.7578125 C115.07149188 83.54474315 112.88001816 82.33392312 110.6875 81.125 C109.4933619 80.46442347 108.29935415 79.80361125 107.10546875 79.14257812 C104.6311976 77.77285482 102.15637535 76.40413521 99.68115234 75.03613281 C93.948843 71.86689507 88.22489946 68.68259627 82.5 65.5 C80.25003844 64.24993081 78.00003833 62.999931 75.75 61.75 C63.32666016 54.84814453 50.90332031 47.94628906 38.47998047 41.04443359 C37.89486191 40.71937332 37.30974335 40.39431305 36.70689392 40.05940247 C35.52731946 39.40407204 34.34776412 38.74870721 33.16822815 38.0933075 C30.29497352 36.49686077 27.42133448 34.90111307 24.54711914 33.30639648 C19.482485 30.49562767 14.42171426 27.67877547 9.375 24.8359375 C8.53203369 24.36260986 7.68906738 23.88928223 6.82055664 23.40161133 C5.27868973 22.53518986 3.73867984 21.66545176 2.20092773 20.79174805 C-3.62650388 17.52294186 -4.82614346 17.76410498 -10.58984375 20.97265625 Z " fill="#000000" transform="translate(260,16)"/>
<path d="M0 0 C3.23028781 1.73588253 6.41165704 3.54109094 9.58789062 5.37402344 C10.78578882 6.05424029 11.98437044 6.73325487 13.18359375 7.41113281 C15.67193911 8.81893425 18.15727829 10.2318385 20.640625 11.6484375 C26.3459295 14.89726037 32.09411787 18.06889353 37.83789062 21.24902344 C40.08286667 22.49608741 42.32765771 23.74348448 44.57226562 24.99121094 C50.27022784 28.1569288 55.9708254 31.31787378 61.671875 34.47802734 C65.036736 36.34563101 68.3984805 38.21874323 71.75976562 40.09277344 C76.17459048 42.55332347 80.60277051 44.98724886 85.04101562 47.40527344 C87.14011132 48.56127406 89.23907567 49.7175132 91.33789062 50.87402344 C92.3056543 51.39432129 93.27341797 51.91461914 94.27050781 52.45068359 C103.0125362 57.30049586 103.0125362 57.30049586 104.33789062 61.74902344 C104.50322277 65.51668859 104.20076861 69.18659244 103.83789062 72.93652344 C103.73822998 74.03859131 103.63856934 75.14065918 103.53588867 76.27612305 C98.77846619 124.18604627 81.97234675 168.85720447 48.33789062 203.74902344 C47.6753125 204.46316406 47.01273438 205.17730469 46.33007812 205.91308594 C33.17755672 219.72598499 9.86206462 237.92308413 -9.68896484 239.77758789 C-15.58270006 239.69226656 -21.39362511 236.22314497 -26.66210938 233.74902344 C-27.6134375 233.30526367 -27.6134375 233.30526367 -28.58398438 232.85253906 C-56.92279521 219.35647316 -76.54740638 195.17450504 -90.66210938 167.74902344 C-91.00693359 167.09981934 -91.35175781 166.45061523 -91.70703125 165.78173828 C-105.46918951 139.73960353 -125.439287 89.1081708 -118.66210938 59.74902344 C-115.98930679 56.49665611 -112.98330767 54.60634422 -109.31445312 52.60449219 C-108.2482373 52.01788818 -107.18202148 51.43128418 -106.08349609 50.8269043 C-104.93381348 50.20307861 -103.78413086 49.57925293 -102.59960938 48.93652344 C-101.38843249 48.2726244 -100.17766457 47.60797877 -98.96728516 46.94262695 C-96.45194672 45.56071518 -93.93488098 44.18203 -91.41650391 42.80566406 C-85.60758795 39.62774745 -79.82326691 36.40565128 -74.03710938 33.18652344 C-72.92295654 32.56753174 -71.80880371 31.94854004 -70.66088867 31.31079102 C-63.0714129 27.09355929 -55.48853775 22.86464986 -47.91210938 18.62402344 C-46.39278809 17.77372559 -46.39278809 17.77372559 -44.84277344 16.90625 C-39.58363319 13.95904196 -34.33285706 10.99780623 -29.09179688 8.01855469 C-27.50383301 7.1167749 -27.50383301 7.1167749 -25.88378906 6.19677734 C-23.86483137 5.04913583 -21.84718652 3.89918069 -19.83105469 2.74658203 C-18.93225586 2.23562988 -18.03345703 1.72467773 -17.10742188 1.19824219 C-15.9243042 0.52281372 -15.9243042 0.52281372 -14.71728516 -0.16625977 C-9.3656461 -2.99084189 -5.30809066 -2.49437422 0 0 Z M-14.06445312 19.03027344 C-14.9394043 19.53413574 -15.81435547 20.03799805 -16.71582031 20.55712891 C-17.6674707 21.1154541 -18.61912109 21.6737793 -19.59960938 22.24902344 C-21.6859571 23.45109354 -23.773241 24.65153986 -25.86132812 25.85058594 C-26.96782715 26.48770508 -28.07432617 27.12482422 -29.21435547 27.78125 C-34.47548939 30.7839932 -39.78038098 33.70577323 -45.0894165 36.62258911 C-48.15014194 38.30423036 -51.20869983 39.98980664 -54.26757812 41.67480469 C-54.87661987 42.01017746 -55.48566162 42.34555023 -56.11315918 42.69108582 C-62.2462961 46.06896173 -68.37390271 49.45675887 -74.4967041 52.85333252 C-76.15774806 53.77444623 -77.81958039 54.69413783 -79.48144531 55.61376953 C-81.52927266 56.7504194 -83.57166938 57.89692082 -85.60791016 59.05419922 C-87.74488318 60.24003988 -89.9135652 61.36969012 -92.10302734 62.45556641 C-95.17725958 64.04689663 -97.95587036 65.59062635 -100.66210938 67.74902344 C-101.58144157 71.34313679 -101.47731884 72.31280464 -100.66210938 75.74902344 C-100.50355469 76.77334473 -100.345 77.79766602 -100.18164062 78.85302734 C-99.5924238 82.60719519 -98.89591619 86.33364637 -98.16210938 90.06152344 C-97.96337219 91.0792131 -97.96337219 91.0792131 -97.76062012 92.11746216 C-89.3398056 134.81223927 -72.72788723 182.49546483 -35.63476562 208.78808594 C-22.96883054 217.93516353 -22.96883054 217.93516353 -8.36523438 221.58105469 C13.78339425 214.76362998 34.63179882 195.75759143 48.33789062 177.74902344 C49.00304687 176.89953125 49.66820312 176.05003906 50.35351562 175.17480469 C56.18372387 167.4968336 60.86080498 159.2639804 65.33789062 150.74902344 C65.6564502 150.14606445 65.97500977 149.54310547 66.30322266 148.921875 C77.72742161 126.92830758 83.72102015 101.28643234 86.33789062 76.74902344 C86.53318359 75.53859375 86.53318359 75.53859375 86.73242188 74.30371094 C87.08940151 71.95685751 87.08940151 71.95685751 86.33789062 68.74902344 C83.70450128 66.9084825 81.13016254 65.31967639 78.33789062 63.74902344 C77.42910156 63.23299561 76.5203125 62.71696777 75.58398438 62.18530273 C72.40671569 60.39834902 69.21759155 58.63415732 66.02539062 56.87402344 C64.83125253 56.21344691 63.63724478 55.55263469 62.44335938 54.89160156 C59.96908823 53.52187825 57.49426598 52.15315864 55.01904297 50.78515625 C49.28673391 47.61591866 43.56272885 44.43172937 37.83789062 41.24902344 C31.44711082 37.69691807 25.05584402 34.14571959 18.65979004 30.6031189 C16.1554037 29.2158759 13.65153415 27.82770163 11.14770508 26.43945312 C9.95118643 25.77638843 8.75441327 25.11378278 7.55737305 24.45166016 C5.9002401 23.53500805 4.24404372 22.61666344 2.58789062 21.69824219 C1.64429688 21.17576904 0.70070313 20.6532959 -0.27148438 20.11499023 C-2.1108054 19.06403015 -3.89949396 17.92410038 -5.66210938 16.74902344 C-9.74302437 16.74902344 -10.71044654 17.07112579 -14.06445312 19.03027344 Z " fill="#000000" transform="translate(263.662109375,63.2509765625)"/>
<path d="M0 0 C1.82788086 1.23510742 1.82788086 1.23510742 3.65234375 2.91796875 C4.34392578 3.55331543 5.03550781 4.18866211 5.74804688 4.84326172 C9.86220138 8.78346564 13.91871955 12.77509972 17.9375 16.8125 C19.23010742 18.09930664 19.23010742 18.09930664 20.54882812 19.41210938 C21.36673828 20.23130859 22.18464844 21.05050781 23.02734375 21.89453125 C23.76718506 22.63550049 24.50702637 23.37646973 25.26928711 24.13989258 C28.06172027 27.14109843 28.52230536 29.68892753 28.47494793 33.7994833 C27.87857028 36.56260512 26.81327843 37.76727218 24.90083313 39.83326721 C24.26282084 40.52767473 23.62480854 41.22208225 22.96746254 41.93753242 C20.03948395 45.00689755 17.0913245 48.04823756 14.08666992 51.04272461 C13.43537109 51.69577576 12.78407227 52.3488269 12.11303711 53.02166748 C9.98799998 55.15105929 7.85938209 57.27682784 5.73046875 59.40234375 C4.24296207 60.89052481 2.7556038 62.37885423 1.26838684 63.86732483 C-1.83402115 66.97120071 -4.93821484 70.07327642 -8.04370117 73.17407227 C-12.0296909 77.15433529 -16.01113421 81.13911126 -19.99127674 85.1252203 C-23.05456902 88.19211733 -26.12022808 91.25663957 -29.18662071 94.32043648 C-30.6566177 95.7897655 -32.12586978 97.25984015 -33.59436989 98.73066521 C-35.63838974 100.77721337 -37.6855679 102.82054791 -39.73364258 104.86303711 C-40.34195419 105.47337296 -40.95026581 106.0837088 -41.57701111 106.71253967 C-46.7129815 111.82248021 -46.7129815 111.82248021 -51.625 112.5 C-55.37230291 112.44782552 -57.01732936 111.50967952 -59.74829102 108.9855957 C-60.44246124 108.34780182 -61.13663147 107.71000793 -61.85183716 107.05288696 C-65.41038578 103.65216801 -68.92666014 100.21590836 -72.40234375 96.73046875 C-73.16551407 95.96825516 -73.92868439 95.20604156 -74.71498108 94.42073059 C-76.31194789 92.82443932 -77.90767253 91.22690447 -79.50219727 89.62817383 C-81.95149736 87.17347177 -84.40614904 84.72421104 -86.86132812 82.27539062 C-88.4169878 80.71907093 -89.97233766 79.16244148 -91.52734375 77.60546875 C-92.2626683 76.87216843 -92.99799286 76.1388681 -93.75559998 75.38334656 C-94.43042923 74.70536514 -95.10525848 74.02738373 -95.80053711 73.32885742 C-96.3959581 72.73264084 -96.99137909 72.13642426 -97.60484314 71.5221405 C-100.19245689 68.69900871 -100.52684324 65.98793615 -100.46362305 62.18920898 C-99.89299646 59.49473368 -98.94276368 58.36495691 -97.08203125 56.34765625 C-96.44668457 55.65607422 -95.81133789 54.96449219 -95.15673828 54.25195312 C-91.21653436 50.13779862 -87.22490028 46.08128045 -83.1875 42.0625 C-81.90069336 40.76989258 -81.90069336 40.76989258 -80.58789062 39.45117188 C-79.76869141 38.63326172 -78.94949219 37.81535156 -78.10546875 36.97265625 C-77.36449951 36.23281494 -76.62353027 35.49297363 -75.86010742 34.73071289 C-72.86607173 31.94495111 -70.33045907 31.48931443 -66.23046875 31.51171875 C-61.85429618 32.469725 -59.02144918 35.87135972 -56 39 C-55.42894531 39.57105469 -54.85789063 40.14210937 -54.26953125 40.73046875 C-53.85058594 41.14941406 -53.43164062 41.56835938 -53 42 C-49.69192748 40.55746715 -47.52804619 38.76706451 -44.99755859 36.20874023 C-44.22350677 35.43130966 -43.44945496 34.65387909 -42.65194702 33.85289001 C-41.41270981 32.59346336 -41.41270981 32.59346336 -40.1484375 31.30859375 C-39.29319489 30.44814957 -38.43795227 29.58770538 -37.55679321 28.70118713 C-34.82474662 25.95132102 -32.09947494 23.19486646 -29.375 20.4375 C-26.64252453 17.67744073 -23.9086214 14.91883491 -21.17178345 12.1631012 C-19.46849067 10.44751612 -17.76787759 8.72926575 -16.07015991 7.00816345 C-15.30241241 6.23388504 -14.53466492 5.45960663 -13.74365234 4.66186523 C-13.06732758 3.97728745 -12.39100281 3.29270966 -11.69418335 2.58738708 C-8.28701825 -0.60500049 -4.46359605 -0.94528481 0 0 Z M-6.78356934 22.54978943 C-7.5014563 23.27513382 -8.21934326 24.00047821 -8.95898438 24.74780273 C-9.77322876 25.56542587 -10.58747314 26.38304901 -11.4263916 27.22544861 C-12.30661987 28.11913651 -13.18684814 29.0128244 -14.09375 29.93359375 C-15.47235812 31.3201478 -16.85096872 32.7066994 -18.2297287 34.09310246 C-20.16512074 36.04165426 -22.09595733 37.99469007 -24.02679443 39.94775391 C-27.40401038 43.3628878 -30.78598847 46.77329037 -34.17150879 50.18019104 C-35.97495249 51.99594119 -37.77571725 53.8143566 -39.5736084 55.63560486 C-40.38785278 56.45638016 -41.20209717 57.27715546 -42.04101562 58.12280273 C-42.75890259 58.84894272 -43.47678955 59.5750827 -44.21643066 60.32322693 C-47.15926985 63.08985529 -49.73028848 63.51035361 -53.76953125 63.48828125 C-58.14570382 62.530275 -60.97855082 59.12864028 -64 56 C-64.57105469 55.42894531 -65.14210938 54.85789063 -65.73046875 54.26953125 C-66.14941406 53.85058594 -66.56835938 53.43164062 -67 53 C-70.45201639 54.47721422 -72.64961936 56.43794001 -75.25 59.125 C-75.95640625 59.84945312 -76.6628125 60.57390625 -77.390625 61.3203125 C-78.18726563 62.15175781 -78.18726563 62.15175781 -79 63 C-77.39626852 67.00517396 -74.57886014 69.6771098 -71.5546875 72.640625 C-71.02481232 73.16767029 -70.49493713 73.69471558 -69.94900513 74.23773193 C-68.26232175 75.91325675 -66.56880436 77.58167722 -64.875 79.25 C-63.72740612 80.38755851 -62.58026539 81.52557436 -61.43359375 82.6640625 C-58.62761863 85.44803465 -55.81549536 88.2256576 -53 91 C-49.02473776 89.3993244 -46.35979696 86.62856444 -43.40527344 83.63232422 C-42.58509735 82.81258621 -42.58509735 82.81258621 -41.74835205 81.97628784 C-39.94724351 80.17378907 -38.15331753 78.36431604 -36.359375 76.5546875 C-35.10999505 75.30157633 -33.86017199 74.04890681 -32.60992432 72.79666138 C-29.32413128 69.50324045 -26.0443893 66.20385709 -22.76586914 62.90319824 C-19.41785747 59.53471006 -16.06416093 56.1718924 -12.7109375 52.80859375 C-6.13504704 46.21126824 0.43446516 39.60763017 7 33 C5.41091724 29.64077747 3.6486857 27.37921007 1 24.75 C0.29875 24.04359375 -0.4025 23.3371875 -1.125 22.609375 C-3.62541519 20.4631853 -4.28810343 20.38141469 -6.78356934 22.54978943 Z " fill="#000000" transform="translate(300,128)"/>
</svg>
