<?xml version="1.0" encoding="UTF-8"?>
<svg version="1.1" xmlns="http://www.w3.org/2000/svg" width="200" height="200">
<path d="M0 0 C0.81010025 -0.0049649 1.6202005 -0.00992981 2.45484924 -0.01504517 C5.13681893 -0.02965865 7.81872945 -0.03646765 10.50073242 -0.04199219 C12.36537172 -0.04774458 14.230011 -0.0535023 16.09465027 -0.05926514 C20.00613684 -0.06977299 23.91760286 -0.07561698 27.82910156 -0.07910156 C32.83606337 -0.08458397 37.84275293 -0.1086075 42.8496294 -0.13707352 C46.70241585 -0.15571722 50.55513696 -0.16090643 54.40796471 -0.16243744 C56.2535113 -0.16546089 58.09905683 -0.17347904 59.9445591 -0.18662262 C62.52965497 -0.20371838 65.11408895 -0.20179428 67.69921875 -0.1953125 C68.83798462 -0.20913467 68.83798462 -0.20913467 69.99975586 -0.22323608 C74.75339272 -0.18598594 78.0304429 0.59418677 82.04370117 3.16113281 C84.35231274 6.62405016 84.3000599 7.94641172 84.31785583 12.03097534 C84.32783096 13.25634003 84.33780609 14.48170471 84.3480835 15.74420166 C84.34897931 17.10436999 84.34964287 18.46453848 84.35009766 19.82470703 C84.35771815 21.25544671 84.36614546 22.68618229 84.37532043 24.11691284 C84.39728313 28.00538453 84.40606668 31.89377758 84.41114688 35.78230429 C84.41478834 38.21142735 84.42102728 40.64052974 84.42814827 43.06964493 C84.45264883 51.54334673 84.46569599 60.01698725 84.46923828 68.49072266 C84.47287415 76.39054859 84.50277135 84.28998613 84.54464287 92.18969333 C84.57932743 98.97110575 84.5947864 105.75238935 84.59548432 112.53388989 C84.59627776 116.5846135 84.60504678 120.63494158 84.63348198 124.68557358 C84.65963171 128.49589553 84.66188589 132.30549319 84.64582634 136.1158638 C84.64400933 137.51348193 84.65072553 138.9111414 84.66664505 140.30867004 C84.79373596 152.19102361 84.79373596 152.19102361 81.69374084 155.46878052 C77.18497071 158.34814401 73.26633684 158.31470036 68.08740234 158.32226562 C67.27730209 158.32723053 66.46720184 158.33219543 65.6325531 158.33731079 C62.95058342 158.35192427 60.26867289 158.35873327 57.58666992 158.36425781 C55.72203062 158.3700102 53.85739134 158.37576793 51.99275208 158.38153076 C48.08126551 158.39203862 44.16979948 158.39788261 40.25830078 158.40136719 C35.25133897 158.4068496 30.24464941 158.43087312 25.23777294 158.45933914 C21.3849865 158.47798284 17.53226538 158.48317206 13.67943764 158.48470306 C11.83389104 158.48772651 9.98834551 158.49574466 8.14284325 158.50888824 C5.55774738 158.52598401 2.9733134 158.52405991 0.38818359 158.51757812 C-0.75058228 158.5314003 -0.75058228 158.5314003 -1.91235352 158.54550171 C-6.66599038 158.50825157 -9.94304056 157.72807886 -13.95629883 155.16113281 C-16.26491039 151.69821547 -16.21265755 150.3758539 -16.23045349 146.29129028 C-16.24042862 145.0659256 -16.25040375 143.84056091 -16.26068115 142.57806396 C-16.26157696 141.21789564 -16.26224053 139.85772714 -16.26269531 138.49755859 C-16.27031581 137.06681891 -16.27874312 135.63608334 -16.28791809 134.20535278 C-16.30988079 130.31688109 -16.31866433 126.42848805 -16.32374454 122.53996134 C-16.32738599 120.11083828 -16.33362494 117.68173589 -16.34074593 115.2526207 C-16.36524649 106.7789189 -16.37829364 98.30527837 -16.38183594 89.83154297 C-16.38547181 81.93171704 -16.41536901 74.03227949 -16.45724052 66.13257229 C-16.49192509 59.35115987 -16.50738406 52.56987627 -16.50808197 45.78837574 C-16.50887542 41.73765213 -16.51764444 37.68732404 -16.54607964 33.63669205 C-16.57222937 29.8263701 -16.57448355 26.01677244 -16.558424 22.20640182 C-16.55660699 20.8087837 -16.56332318 19.41112422 -16.57924271 18.01359558 C-16.70633362 6.13124201 -16.70633362 6.13124201 -13.6063385 2.85348511 C-9.09756837 -0.02587838 -5.1789345 0.00756526 0 0 Z M-8.95629883 9.16113281 C-8.95629883 12.46113281 -8.95629883 15.76113281 -8.95629883 19.16113281 C19.42370117 19.16113281 47.80370117 19.16113281 77.04370117 19.16113281 C77.04370117 15.86113281 77.04370117 12.56113281 77.04370117 9.16113281 C75.28041645 7.3978481 72.94852974 8.03497638 70.59963989 8.02560425 C69.81934418 8.02762848 69.03904846 8.02965271 68.23510742 8.03173828 C67.41726776 8.02998596 66.5994281 8.02823364 65.75680542 8.02642822 C63.03991607 8.02200897 60.32309124 8.02494795 57.60620117 8.02832031 C55.72672513 8.02764729 53.84724918 8.02667729 51.96777344 8.02542114 C48.02334771 8.02394407 44.07894459 8.02609903 40.13452148 8.03076172 C35.06657614 8.03645901 29.99868375 8.03318006 24.93074036 8.02718925 C21.0481323 8.0235839 17.16553689 8.02472211 13.28292847 8.02731705 C11.41372674 8.02798639 9.54452389 8.02715765 7.67532349 8.02483749 C5.06761613 8.02231138 2.45999576 8.02615097 -0.14770508 8.03173828 C-1.31814865 8.02870193 -1.31814865 8.02870193 -2.51223755 8.02560425 C-6.02707075 7.71641224 -6.02707075 7.71641224 -8.95629883 9.16113281 Z M-8.95629883 26.16113281 C-8.95629883 56.85113281 -8.95629883 87.54113281 -8.95629883 119.16113281 C-4.99629883 119.49113281 -1.03629883 119.82113281 3.04370117 120.16113281 C2.71370117 121.81113281 2.38370117 123.46113281 2.04370117 125.16113281 C-3.40129883 125.65613281 -3.40129883 125.65613281 -8.95629883 126.16113281 C-8.95629883 128.14113281 -8.95629883 130.12113281 -8.95629883 132.16113281 C19.42370117 132.16113281 47.80370117 132.16113281 77.04370117 132.16113281 C77.04370117 97.18113281 77.04370117 62.20113281 77.04370117 26.16113281 C48.66370117 26.16113281 20.28370117 26.16113281 -8.95629883 26.16113281 Z M-8.95629883 139.16113281 C-8.95629883 142.46113281 -8.95629883 145.76113281 -8.95629883 149.16113281 C-7.19301411 150.92441753 -4.86112739 150.28728925 -2.51223755 150.29666138 C-1.73194183 150.29463715 -0.95164612 150.29261292 -0.14770508 150.29052734 C0.67013458 150.29227966 1.48797424 150.29403198 2.33059692 150.2958374 C5.04748628 150.30025666 7.7643111 150.29731767 10.48120117 150.29394531 C12.36067721 150.29461833 14.24015317 150.29558834 16.11962891 150.29684448 C20.06405463 150.29832156 24.00845776 150.2961666 27.95288086 150.29150391 C33.0208262 150.28580661 38.08871859 150.28908557 43.15666199 150.29507637 C47.03927004 150.29868173 50.92186545 150.29754351 54.80447388 150.29494858 C56.6736756 150.29427924 58.54287845 150.29510797 60.41207886 150.29742813 C63.01978621 150.29995425 65.62740658 150.29611465 68.23510742 150.29052734 C69.40555099 150.29356369 69.40555099 150.29356369 70.59963989 150.29666138 C74.1144731 150.60585339 74.1144731 150.60585339 77.04370117 149.16113281 C77.04370117 145.86113281 77.04370117 142.56113281 77.04370117 139.16113281 C48.66370117 139.16113281 20.28370117 139.16113281 -8.95629883 139.16113281 Z " fill="#000000" transform="translate(115.956298828125,20.8388671875)"/>
<path d="M0 0 C0.9213826 -0.00960754 1.8427652 -0.01921509 2.79206848 -0.02911377 C3.78582993 -0.03336365 4.77959137 -0.03761353 5.8034668 -0.04199219 C6.82820602 -0.04769226 7.85294525 -0.05339233 8.90873718 -0.05926514 C11.07830778 -0.06871433 13.24789272 -0.0752488 15.41748047 -0.07910156 C18.7293415 -0.08879884 22.04057977 -0.11982 25.35229492 -0.15136719 C27.4610152 -0.15789825 29.56973991 -0.16314831 31.6784668 -0.16699219 C32.66615555 -0.17933899 33.6538443 -0.19168579 34.67146301 -0.20440674 C39.9952135 -0.18724255 43.88910786 0.06757797 48.44018555 3.16113281 C50.86888464 6.80418145 50.6969423 9.4683562 50.63549805 13.67285156 C50.63266815 14.4010762 50.62983826 15.12930084 50.62692261 15.8795929 C50.61573811 18.20277418 50.59063721 20.52556828 50.56518555 22.84863281 C50.55515349 24.42479911 50.54602803 26.00097147 50.5378418 27.57714844 C50.51580451 31.43862548 50.48128696 35.29981352 50.44018555 39.16113281 C51.05893555 39.44988281 51.67768555 39.73863281 52.31518555 40.03613281 C54.44018555 41.16113281 54.44018555 41.16113281 56.44018555 43.16113281 C56.70761108 46.10812378 56.70761108 46.10812378 56.73071289 49.93408203 C56.73743011 50.63020599 56.74414734 51.32632996 56.75106812 52.04354858 C56.77010791 54.35104458 56.7739754 56.65825059 56.77612305 58.96582031 C56.78254737 60.56763836 56.78927545 62.16945521 56.79629517 63.77127075 C56.80828326 67.13220948 56.81197448 70.4930453 56.81079102 73.85400391 C56.81058786 78.16071773 56.83787908 82.4667714 56.87233543 86.77332878 C56.89457554 90.0830488 56.89862944 93.3926093 56.89757156 96.70239639 C56.89993231 98.29003294 56.9087825 99.87767357 56.9242363 101.46523666 C56.94383695 103.68709205 56.93808291 105.90751602 56.92602539 108.12939453 C56.92887543 109.39355194 56.93172546 110.65770935 56.93466187 111.96017456 C56.35538899 115.71005744 55.44851888 116.91990541 52.44018555 119.16113281 C51.78018555 119.16113281 51.12018555 119.16113281 50.44018555 119.16113281 C50.46636963 120.1346167 50.49255371 121.10810059 50.51953125 122.11108398 C50.61028576 125.73568584 50.66752455 129.36018808 50.71484375 132.9855957 C50.73993101 134.55217396 50.7740097 136.1186358 50.81738281 137.68481445 C50.87829781 139.9415359 50.90645053 142.19670575 50.9284668 144.45410156 C50.95427322 145.15012985 50.98007965 145.84615814 51.00666809 146.5632782 C51.00888167 150.43359416 50.55012938 152.02415267 48.09716797 155.08032227 C44.62172924 157.80210526 42.16411536 158.28616374 37.88037109 158.32226562 C36.95898849 158.33187317 36.0376059 158.34148071 35.08830261 158.35137939 C34.09454117 158.35562927 33.10077972 158.35987915 32.0769043 158.36425781 C31.05216507 158.36995789 30.02742584 158.37565796 28.97163391 158.38153076 C26.80206332 158.39097996 24.63247838 158.39751442 22.46289062 158.40136719 C19.15102959 158.41106446 15.83979133 158.44208563 12.52807617 158.47363281 C10.4193559 158.48016387 8.31063118 158.48541394 6.2019043 158.48925781 C5.21421555 158.50160461 4.22652679 158.51395142 3.20890808 158.52667236 C-2.1148424 158.50950817 -6.00873677 158.25468766 -10.55981445 155.16113281 C-12.98851354 151.51808418 -12.81657121 148.85390942 -12.75512695 144.64941406 C-12.75229706 143.92118942 -12.74946716 143.19296478 -12.74655151 142.44267273 C-12.73536702 140.11949144 -12.71026612 137.79669735 -12.68481445 135.47363281 C-12.67478239 133.89746651 -12.66565693 132.32129416 -12.6574707 130.74511719 C-12.63543342 126.88364014 -12.60091586 123.0224521 -12.55981445 119.16113281 C-13.17856445 119.05800781 -13.79731445 118.95488281 -14.43481445 118.84863281 C-16.55981445 118.16113281 -16.55981445 118.16113281 -18.55981445 115.16113281 C-18.82723999 112.09388733 -18.82723999 112.09388733 -18.8503418 108.2746582 C-18.85705902 107.57838821 -18.86377625 106.88211823 -18.87069702 106.16474915 C-18.8896977 103.86268991 -18.89360208 101.56092184 -18.89575195 99.25878906 C-18.90217803 97.65840027 -18.90890625 96.05801265 -18.91592407 94.45762634 C-18.92790169 91.10266394 -18.93160436 87.74780455 -18.93041992 84.39282227 C-18.9302166 80.09398417 -18.95752914 75.79580624 -18.99196434 71.49712467 C-19.01420174 68.19169582 -19.01825846 64.88642671 -19.01720047 61.58093071 C-19.0195608 59.99608521 -19.02840869 58.41123559 -19.0438652 56.8264637 C-19.06346424 54.60950594 -19.05771293 52.39398286 -19.0456543 50.17700195 C-19.04992935 48.28529015 -19.04992935 48.28529015 -19.05429077 46.35536194 C-18.47451159 42.61009146 -17.56391528 41.40062943 -14.55981445 39.16113281 C-13.89981445 39.16113281 -13.23981445 39.16113281 -12.55981445 39.16113281 C-12.58599854 38.18764893 -12.61218262 37.21416504 -12.63916016 36.21118164 C-12.72991466 32.58657979 -12.78715346 28.96207754 -12.83447266 25.33666992 C-12.85955992 23.77009167 -12.8936386 22.20362982 -12.93701172 20.63745117 C-12.99792671 18.38072972 -13.02607944 16.12555987 -13.0480957 13.86816406 C-13.07390213 13.17213577 -13.09970856 12.47610748 -13.126297 11.75898743 C-13.12851058 7.88867146 -12.66975829 6.29811295 -10.21679688 3.24194336 C-6.74135815 0.52016037 -4.28374427 0.03610189 0 0 Z M-4.55981445 8.16113281 C-4.88981445 9.81113281 -5.21981445 11.46113281 -5.55981445 13.16113281 C1.37018555 13.65613281 1.37018555 13.65613281 8.44018555 14.16113281 C8.77018555 15.48113281 9.10018555 16.80113281 9.44018555 18.16113281 C7.49927729 20.10204107 3.96724652 19.56032717 1.37768555 19.72363281 C-0.5578418 19.84931641 -0.5578418 19.84931641 -2.5324707 19.97753906 C-3.53149414 20.038125 -4.53051758 20.09871094 -5.55981445 20.16113281 C-5.55981445 21.81113281 -5.55981445 23.46113281 -5.55981445 25.16113281 C-3.08481445 26.15113281 -3.08481445 26.15113281 -0.55981445 27.16113281 C-0.88981445 28.81113281 -1.21981445 30.46113281 -1.55981445 32.16113281 C-2.87981445 32.49113281 -4.19981445 32.82113281 -5.55981445 33.16113281 C-5.55981445 34.48113281 -5.55981445 35.80113281 -5.55981445 37.16113281 C-3.21937067 38.33135471 -1.84075731 38.28789826 0.76635742 38.29052734 C1.66068481 38.2936795 2.55501221 38.29683167 3.47644043 38.30007935 C4.92802551 38.297043 4.92802551 38.297043 6.40893555 38.29394531 C7.40018433 38.29490204 8.39143311 38.29585876 9.41271973 38.29684448 C11.51090559 38.29752574 13.60909356 38.29567524 15.70727539 38.29150391 C18.92688715 38.28615491 22.1463594 38.29145075 25.3659668 38.29785156 C27.40112336 38.29719077 29.43627983 38.29590959 31.47143555 38.29394531 C32.43915894 38.29596954 33.40688232 38.29799377 34.40393066 38.30007935 C35.29825806 38.29692719 36.19258545 38.29377502 37.11401367 38.29052734 C38.29743347 38.28933395 38.29743347 38.28933395 39.50476074 38.28811646 C41.52292757 38.28130199 41.52292757 38.28130199 43.44018555 37.16113281 C43.46484436 33.19182292 43.48302578 29.22254247 43.49511719 25.25317383 C43.50015611 23.90192895 43.50698732 22.55068955 43.515625 21.19946289 C43.52770974 19.26092847 43.53288383 17.32235481 43.5378418 15.38378906 C43.54307861 14.215979 43.54831543 13.04816895 43.55371094 11.8449707 C43.7468005 9.2422173 43.7468005 9.2422173 42.44018555 8.16113281 C40.96664207 8.06809263 39.48867964 8.04367016 38.01220703 8.04760742 C37.07130722 8.04768295 36.13040741 8.04775848 35.16099548 8.0478363 C34.13808914 8.05299759 33.1151828 8.05815887 32.0612793 8.06347656 C30.49858055 8.06559898 30.49858055 8.06559898 28.90431213 8.06776428 C25.56207461 8.07338201 22.21990298 8.08593751 18.87768555 8.09863281 C16.61792089 8.10364553 14.35815518 8.10820883 12.09838867 8.11230469 C6.54563164 8.1233572 0.9929133 8.14011257 -4.55981445 8.16113281 Z M-11.55981445 46.16113281 C-11.65921071 48.21126128 -11.68780998 50.26484673 -11.68920898 52.31738281 C-11.69236115 53.63544922 -11.69551331 54.95351562 -11.69876099 56.31152344 C-11.69697121 57.76139357 -11.69492026 59.21126339 -11.69262695 60.66113281 C-11.69330003 62.13704443 -11.69427008 63.61295595 -11.69552612 65.08886719 C-11.69700293 68.18588311 -11.69484909 71.28287023 -11.69018555 74.37988281 C-11.68448826 78.3582183 -11.68776735 82.33648633 -11.69375801 86.31481934 C-11.69736409 89.36361198 -11.69622482 92.41238852 -11.69363022 95.46118164 C-11.69296108 96.92846688 -11.69378892 98.39575356 -11.69610977 99.86303711 C-11.69863702 101.91031874 -11.69410506 103.95760547 -11.68920898 106.00488281 C-11.68841339 107.17212891 -11.6876178 108.339375 -11.6867981 109.54199219 C-11.85743157 112.08752729 -11.85743157 112.08752729 -10.55981445 113.16113281 C-8.72408815 113.26018433 -6.8845387 113.28912488 -5.04614258 113.29052734 C-3.27926086 113.29525558 -3.27926086 113.29525558 -1.47668457 113.30007935 C-0.19442993 113.29805511 1.08782471 113.29603088 2.40893555 113.29394531 C3.71471558 113.29490204 5.02049561 113.29585876 6.36584473 113.29684448 C9.13331277 113.29832114 11.90074859 113.29616793 14.66821289 113.29150391 C18.22281204 113.28580662 21.77733569 113.28908579 25.33193207 113.29507637 C28.71177268 113.29955028 32.09159278 113.29642167 35.47143555 113.29394531 C36.75369019 113.29596954 38.03594482 113.29799377 39.35705566 113.30007935 C40.53497681 113.29692719 41.71289795 113.29377502 42.92651367 113.29052734 C43.96940552 113.28973175 45.01229736 113.28893616 46.08679199 113.28811646 C48.3977919 113.42618688 48.3977919 113.42618688 49.44018555 112.16113281 C49.53958181 110.11100435 49.56818107 108.0574189 49.56958008 106.00488281 C49.57273224 104.68681641 49.5758844 103.36875 49.57913208 102.01074219 C49.5773423 100.56087206 49.57529135 99.11100223 49.57299805 97.66113281 C49.57367112 96.18522119 49.57464118 94.70930968 49.57589722 93.23339844 C49.57737403 90.13638252 49.57522019 87.03939539 49.57055664 83.94238281 C49.56485935 79.96404733 49.56813845 75.9857793 49.5741291 72.00744629 C49.57773518 68.95865364 49.57659592 65.9098771 49.57400131 62.86108398 C49.57333217 61.39379875 49.57416002 59.92651207 49.57648087 58.45922852 C49.57900811 56.41194688 49.57447615 54.36466015 49.56958008 52.31738281 C49.56878448 51.15013672 49.56798889 49.98289062 49.56716919 48.78027344 C49.73780266 46.23473833 49.73780266 46.23473833 48.44018555 45.16113281 C46.60445924 45.06208129 44.7649098 45.03314074 42.92651367 45.03173828 C41.15963196 45.02701004 41.15963196 45.02701004 39.35705566 45.02218628 C38.07480103 45.02421051 36.79254639 45.02623474 35.47143555 45.02832031 C34.16565552 45.02736359 32.85987549 45.02640686 31.51452637 45.02542114 C28.74705833 45.02394448 25.97962251 45.0260977 23.2121582 45.03076172 C19.65755905 45.03645901 16.1030354 45.03317983 12.54843903 45.02718925 C9.16859841 45.02271534 5.78877831 45.02584395 2.40893555 45.02832031 C1.12668091 45.02629608 -0.15557373 45.02427185 -1.47668457 45.02218628 C-2.65460571 45.02533844 -3.83252686 45.0284906 -5.04614258 45.03173828 C-6.08903442 45.03253387 -7.13192627 45.03332947 -8.2064209 45.03414917 C-10.51742081 44.89607875 -10.51742081 44.89607875 -11.55981445 46.16113281 Z M-5.55981445 121.16113281 C-5.55981445 122.48113281 -5.55981445 123.80113281 -5.55981445 125.16113281 C-0.60981445 125.49113281 4.34018555 125.82113281 9.44018555 126.16113281 C9.44018555 128.14113281 9.44018555 130.12113281 9.44018555 132.16113281 C4.49018555 132.49113281 -0.45981445 132.82113281 -5.55981445 133.16113281 C-5.55981445 134.81113281 -5.55981445 136.46113281 -5.55981445 138.16113281 C-3.90981445 138.49113281 -2.25981445 138.82113281 -0.55981445 139.16113281 C-0.55981445 140.81113281 -0.55981445 142.46113281 -0.55981445 144.16113281 C-2.20981445 144.49113281 -3.85981445 144.82113281 -5.55981445 145.16113281 C-5.22981445 146.81113281 -4.89981445 148.46113281 -4.55981445 150.16113281 C2.11538895 150.18640226 8.79058011 150.20396549 15.46582031 150.21606445 C17.73861146 150.22110606 20.01139935 150.22793919 22.28417969 150.23657227 C25.54322106 150.24864542 28.80221971 150.25436268 32.0612793 150.25878906 C33.08418564 150.26395035 34.10709198 150.26911163 35.16099548 150.27442932 C36.10189529 150.27450485 37.0427951 150.27458038 38.01220703 150.2746582 C38.84493637 150.27687881 39.67766571 150.27909943 40.53562927 150.28138733 C42.45051829 150.37118113 42.45051829 150.37118113 43.44018555 149.16113281 C43.52785667 147.08851205 43.54714428 145.01292987 43.5378418 142.93847656 C43.53461914 141.67841797 43.53139648 140.41835937 43.52807617 139.12011719 C43.51971958 137.77962172 43.51125462 136.43912693 43.50268555 135.09863281 C43.49767215 133.75423339 43.49310896 132.40983222 43.48901367 131.06542969 C43.47718042 127.76395341 43.46069526 124.46256478 43.44018555 121.16113281 C41.09974176 119.99091092 39.72112841 120.03436736 37.11401367 120.03173828 C36.21968628 120.02858612 35.32535889 120.02543396 34.40393066 120.02218628 C32.95234558 120.02522263 32.95234558 120.02522263 31.47143555 120.02832031 C30.48018677 120.02736359 29.48893799 120.02640686 28.46765137 120.02542114 C26.3694655 120.02473989 24.27127753 120.02659038 22.1730957 120.03076172 C18.95348394 120.03611072 15.7340117 120.03081487 12.5144043 120.02441406 C10.47924774 120.02507485 8.44409127 120.02635604 6.40893555 120.02832031 C5.44121216 120.02629608 4.47348877 120.02427185 3.47644043 120.02218628 C2.13494934 120.02691452 2.13494934 120.02691452 0.76635742 120.03173828 C-0.02258911 120.03253387 -0.81153564 120.03332947 -1.62438965 120.03414917 C-3.64255648 120.04096363 -3.64255648 120.04096363 -5.55981445 121.16113281 Z " fill="#000000" transform="translate(18.559814453125,20.8388671875)"/>
<path d="M0 0 C1.05449341 -0.00630432 2.10898682 -0.01260864 3.19543457 -0.019104 C4.909505 -0.01303131 4.909505 -0.01303131 6.65820312 -0.00683594 C8.41142883 -0.00970612 8.41142883 -0.00970612 10.20007324 -0.01263428 C12.67488825 -0.0139972 15.14971039 -0.01029335 17.62451172 -0.00195312 C21.42366517 0.00874461 25.22234572 -0.00184512 29.02148438 -0.01464844 C31.42122501 -0.01332686 33.82096534 -0.01076451 36.22070312 -0.00683594 C37.36341675 -0.0108844 38.50613037 -0.01493286 39.68347168 -0.019104 C41.26521179 -0.00964752 41.26521179 -0.00964752 42.87890625 0 C43.80997192 0.00159119 44.7410376 0.00318237 45.70031738 0.00482178 C47.93945312 0.25878906 47.93945312 0.25878906 49.93945312 2.25878906 C50.19342041 4.76367187 50.19342041 4.76367187 50.19824219 7.96191406 C50.20454651 9.15655273 50.21085083 10.35119141 50.21734619 11.58203125 C50.21329773 12.87786133 50.20924927 14.17369141 50.20507812 15.50878906 C50.20642491 16.84635489 50.20836555 18.18392023 50.21087646 19.52148438 C50.21382713 22.32589373 50.20953206 25.13017575 50.20019531 27.93457031 C50.18880066 31.53283828 50.19536046 35.13080792 50.20734024 38.72906494 C50.21456049 41.49139665 50.21227019 44.25365739 50.20708466 47.01599121 C50.20509787 48.9891784 50.21118154 50.96236832 50.21734619 52.93554688 C50.21104187 54.13018555 50.20473755 55.32482422 50.19824219 56.55566406 C50.196651 57.61108398 50.19505981 58.66650391 50.19342041 59.75390625 C49.93945312 62.25878906 49.93945312 62.25878906 47.93945312 64.25878906 C45.70031738 64.51275635 45.70031738 64.51275635 42.87890625 64.51757812 C41.29716614 64.52703461 41.29716614 64.52703461 39.68347168 64.53668213 C37.96940125 64.53060944 37.96940125 64.53060944 36.22070312 64.52441406 C34.46747742 64.52728424 34.46747742 64.52728424 32.67883301 64.5302124 C30.204018 64.53157532 27.72919586 64.52787147 25.25439453 64.51953125 C21.45524108 64.50883352 17.65656053 64.51942324 13.85742188 64.53222656 C11.45768124 64.53090499 9.05794091 64.52834264 6.65820312 64.52441406 C4.94413269 64.53048676 4.94413269 64.53048676 3.19543457 64.53668213 C2.14094116 64.53037781 1.08644775 64.52407349 0 64.51757812 C-0.93106567 64.51598694 -1.86213135 64.51439575 -2.82141113 64.51275635 C-5.06054688 64.25878906 -5.06054688 64.25878906 -7.06054688 62.25878906 C-7.31451416 59.75390625 -7.31451416 59.75390625 -7.31933594 56.55566406 C-7.32564026 55.36102539 -7.33194458 54.16638672 -7.33843994 52.93554688 C-7.33439148 51.6397168 -7.33034302 50.34388672 -7.32617188 49.00878906 C-7.32751866 47.67122324 -7.3294593 46.33365789 -7.33197021 44.99609375 C-7.33492088 42.1916844 -7.33062581 39.38740238 -7.32128906 36.58300781 C-7.30989441 32.98473984 -7.31645421 29.3867702 -7.32843399 25.78851318 C-7.33565424 23.02618148 -7.33336394 20.26392073 -7.32817841 17.50158691 C-7.32619162 15.52839973 -7.33227529 13.55520981 -7.33843994 11.58203125 C-7.33213562 10.38739258 -7.3258313 9.19275391 -7.31933594 7.96191406 C-7.31774475 6.90649414 -7.31615356 5.85107422 -7.31451416 4.76367188 C-6.82315294 -0.08263053 -4.21169986 0.00719777 0 0 Z M-0.06054688 7.25878906 C-0.06054688 23.75878906 -0.06054688 40.25878906 -0.06054688 57.25878906 C14.12945313 57.25878906 28.31945313 57.25878906 42.93945312 57.25878906 C42.93945312 40.75878906 42.93945312 24.25878906 42.93945312 7.25878906 C28.74945313 7.25878906 14.55945312 7.25878906 -0.06054688 7.25878906 Z " fill="#000000" transform="translate(16.060546875,67.7412109375)"/>
<path d="M0 0 C0.79792969 0.00386719 1.59585938 0.00773437 2.41796875 0.01171875 C3.21589844 0.00785156 4.01382813 0.00398438 4.8359375 0 C10.79136108 0.01011108 10.79136108 0.01011108 11.91796875 1.13671875 C12.05912036 3.80730726 11.96043982 6.46104113 11.91796875 9.13671875 C13.23796875 9.79671875 14.55796875 10.45671875 15.91796875 11.13671875 C15.9719421 13.57451505 16.01162491 16.0111156 16.04296875 18.44921875 C16.06810547 19.4846582 16.06810547 19.4846582 16.09375 20.54101562 C16.13014669 24.30807271 16.06175739 25.92103579 13.91796875 29.13671875 C11.703125 29.49316406 11.703125 29.49316406 8.98046875 29.46484375 C8.00335938 29.4596875 7.02625 29.45453125 6.01953125 29.44921875 C4.99601563 29.42859375 3.9725 29.40796875 2.91796875 29.38671875 C1.89445313 29.3815625 0.8709375 29.37640625 -0.18359375 29.37109375 C-7.77349014 29.2909893 -7.77349014 29.2909893 -10.08203125 28.13671875 C-10.08203125 22.19671875 -10.08203125 16.25671875 -10.08203125 10.13671875 C-9.09203125 9.80671875 -8.10203125 9.47671875 -7.08203125 9.13671875 C-7.10265625 7.83734375 -7.12328125 6.53796875 -7.14453125 5.19921875 C-7.16602579 3.84506242 -7.15351324 2.48915792 -7.08203125 1.13671875 C-5.19650595 -0.74880655 -2.50434294 0.00425186 0 0 Z M-0.08203125 7.13671875 C-0.08203125 7.79671875 -0.08203125 8.45671875 -0.08203125 9.13671875 C1.56796875 9.13671875 3.21796875 9.13671875 4.91796875 9.13671875 C4.91796875 8.47671875 4.91796875 7.81671875 4.91796875 7.13671875 C3.26796875 7.13671875 1.61796875 7.13671875 -0.08203125 7.13671875 Z M-3.08203125 16.13671875 C-3.08203125 18.11671875 -3.08203125 20.09671875 -3.08203125 22.13671875 C0.54796875 22.13671875 4.17796875 22.13671875 7.91796875 22.13671875 C7.91796875 20.15671875 7.91796875 18.17671875 7.91796875 16.13671875 C4.28796875 16.13671875 0.65796875 16.13671875 -3.08203125 16.13671875 Z " fill="#000000" transform="translate(163.08203125,52.86328125)"/>
<path d="M0 0 C4.875 0.875 4.875 0.875 6 2 C8.45809998 2.2500773 8.45809998 2.2500773 11 2 C11.66 1.34 12.32 0.68 13 0 C15.625 0.375 15.625 0.375 18 1 C18 1.66 18 2.32 18 3 C18.99 3.33 19.98 3.66 21 4 C21.02887814 7.47914941 21.04675687 10.95826831 21.0625 14.4375 C21.07087891 15.43072266 21.07925781 16.42394531 21.08789062 17.44726562 C21.09272461 18.86362305 21.09272461 18.86362305 21.09765625 20.30859375 C21.10551147 21.62041626 21.10551147 21.62041626 21.11352539 22.95874023 C21 25 21 25 20 26 C16.19411856 26.25208722 12.37574544 26.18522344 8.5625 26.1875 C6.94891602 26.20586914 6.94891602 26.20586914 5.30273438 26.22460938 C4.27599609 26.22654297 3.24925781 26.22847656 2.19140625 26.23046875 C0.77130249 26.23663208 0.77130249 26.23663208 -0.67749023 26.24291992 C-3 26 -3 26 -5 24 C-5.25878906 22.16821289 -5.25878906 22.16821289 -5.265625 19.97265625 C-5.26820312 19.18052734 -5.27078125 18.38839844 -5.2734375 17.57226562 C-5.26183594 16.32993164 -5.26183594 16.32993164 -5.25 15.0625 C-5.25773437 14.23814453 -5.26546875 13.41378906 -5.2734375 12.56445312 C-5.27085938 11.77103516 -5.26828125 10.97761719 -5.265625 10.16015625 C-5.26336914 9.43449463 -5.26111328 8.70883301 -5.25878906 7.96118164 C-5 6 -5 6 -3 3 C-2.34 3 -1.68 3 -1 3 C-0.67 2.01 -0.34 1.02 0 0 Z M3 10 C3 12.97 3 15.94 3 19 C6.63 19 10.26 19 14 19 C14 16.03 14 13.06 14 10 C10.37 10 6.74 10 3 10 Z " fill="#000000" transform="translate(126,87)"/>
<path d="M0 0 C1.93359375 -0.01933594 1.93359375 -0.01933594 3.90625 -0.0390625 C8.33258642 0.77884749 9.8158739 2.06307841 12.5 5.625 C13.35069703 8.71075816 13.12571828 11.49640862 12.5 14.625 C10.78739205 17.34155055 9.14201334 19.09367861 6.6875 21.125 C6.295625 21.62 5.90375 22.115 5.5 22.625 C5.78604898 24.30042976 6.11781233 25.96885343 6.5 27.625 C4.5 29.625 4.5 29.625 2.40625 29.85546875 C1.6121875 29.84128906 0.818125 29.82710937 0 29.8125 C-0.7940625 29.80605469 -1.588125 29.79960938 -2.40625 29.79296875 C-4.5 29.625 -4.5 29.625 -6.5 28.625 C-6.625 23.875 -6.625 23.875 -5.5 21.625 C-6.44875 20.903125 -7.3975 20.18125 -8.375 19.4375 C-11.18018803 17.07663253 -12.69253372 15.30345749 -13.5 11.625 C-13.41909213 7.74142218 -12.828142 6.04085098 -10.41015625 2.9765625 C-6.72623083 -0.00024703 -4.68831344 -0.04688313 0 0 Z M-4.5 7.625 C-4.83 8.945 -5.16 10.265 -5.5 11.625 C-3.025 13.605 -3.025 13.605 -0.5 15.625 C3.25151144 13.83592278 3.25151144 13.83592278 5.3125 10.4375 C5.374375 9.839375 5.43625 9.24125 5.5 8.625 C2.11981469 7.58494298 -0.9780279 7.54495518 -4.5 7.625 Z " fill="#000000" transform="translate(134.5,52.375)"/>
<path d="M0 0 C4.36488127 2.77765172 5.45717404 4.47411544 6.625 9.5625 C7.00358509 13.98206944 6.10177763 16.92836136 3.75 20.75 C0.43410302 23.64713679 -2.51884208 24.6617568 -6.875 25.1875 C-11.67943746 24.56470255 -14.00786234 22.85785251 -17.5625 19.6875 C-20.03609759 15.3816079 -20.26702602 11.59405727 -19.25 6.75 C-14.86504655 -0.87899425 -8.42554347 -3.24059364 0 0 Z M-10.5 7.375 C-12.56885134 9.67779775 -12.56885134 9.67779775 -12.1875 12.875 C-11.48305313 16.04174932 -11.48305313 16.04174932 -8.25 17.75 C-4.92759676 17.4258631 -3.64223697 17.14223697 -1.25 14.75 C-0.74989476 11.79230823 -0.74989476 11.79230823 -1.25 8.75 C-2.9609211 6.77901574 -2.9609211 6.77901574 -5.25 5.75 C-8.30723545 5.45725472 -8.30723545 5.45725472 -10.5 7.375 Z " fill="#000000" transform="translate(172.25,88.25)"/>
<path d="M0 0 C3.52886968 1.93089095 5.87118588 3.60827522 8.3125 6.8125 C8.125 9.625 8.125 9.625 7.3125 11.8125 C5.6875 12.625 5.6875 12.625 3.3125 12.8125 C2.44625 12.008125 1.58 11.20375 0.6875 10.375 C-2.75254986 7.25800051 -5.75988926 7.10369084 -10.29296875 7.30078125 C-12.91609268 7.86135096 -14.04979563 8.57597426 -16 10.375 C-16.886875 11.179375 -17.77375 11.98375 -18.6875 12.8125 C-21.5625 12.625 -21.5625 12.625 -23.6875 11.8125 C-24 9.625 -24 9.625 -23.6875 6.8125 C-17.49223167 -1.07238697 -9.17164678 -2.95358117 0 0 Z " fill="#000000" transform="translate(157.6875,122.1875)"/>
<path d="M0 0 C3.22133364 2.3009526 5.24167451 4.72059862 7.625 7.875 C6.965 9.195 6.305 10.515 5.625 11.875 C3.375 12.125 3.375 12.125 0.625 11.875 C-1.5625 9.9375 -1.5625 9.9375 -3.375 7.875 C-6.43929776 6.34285112 -8.9915642 6.64561452 -12.375 6.875 C-16.10303465 8.62228778 -16.10303465 8.62228778 -18.375 11.875 C-20.355 11.875 -22.335 11.875 -24.375 11.875 C-25.0390625 10.1015625 -25.0390625 10.1015625 -25.375 7.875 C-24.3359375 6.0234375 -24.3359375 6.0234375 -22.75 4.25 C-22.24210937 3.65960938 -21.73421875 3.06921875 -21.2109375 2.4609375 C-15.39315637 -2.56463514 -6.9609917 -2.32033057 0 0 Z " fill="#000000" transform="translate(46.375,88.125)"/>
<path d="M0 0 C2.625 1.8125 2.625 1.8125 4 4 C3.75 6.25 3.75 6.25 3 8 C-0.10843678 8.88812479 -1.57398759 9.1724336 -4.625 7.9375 C-5.40875 7.628125 -6.1925 7.31875 -7 7 C-7.99 7.66 -8.98 8.32 -10 9 C-12.6875 8.625 -12.6875 8.625 -15 8 C-15.75 6.25 -15.75 6.25 -16 4 C-11.48988899 -1.63763876 -6.59509704 -1.54479751 0 0 Z " fill="#000000" transform="translate(156,132)"/>
<path d="M0 0 C3.0625 1.6875 3.0625 1.6875 5 4 C5.3125 6.75 5.3125 6.75 5 9 C2.6875 9.625 2.6875 9.625 0 10 C-0.99 9.34 -1.98 8.68 -3 8 C-5.4926207 8.31956676 -7.77484438 8.93566982 -10.1875 9.625 C-12 10 -12 10 -14 9 C-14.3125 6.75 -14.3125 6.75 -14 4 C-10.11765261 -0.63376947 -5.6729141 -1.01558498 0 0 Z " fill="#000000" transform="translate(42,97)"/>
<path d="M0 0 C2.625 0.375 2.625 0.375 5 1 C6.125 4.75 6.125 4.75 5 7 C3.02 7 1.04 7 -1 7 C-1.625 4.625 -1.625 4.625 -2 2 C-1.34 1.34 -0.68 0.68 0 0 Z " fill="#000000" transform="translate(148,140)"/>
<path d="M0 0 C2.625 0.375 2.625 0.375 5 1 C6.125 4.75 6.125 4.75 5 7 C3.02 7 1.04 7 -1 7 C-1.625 4.625 -1.625 4.625 -2 2 C-1.34 1.34 -0.68 0.68 0 0 Z " fill="#000000" transform="translate(123,140)"/>
<path d="M0 0 C2.5 0.125 2.5 0.125 3.5 1.125 C3.625 3.625 3.625 3.625 3.5 6.125 C2.5 7.125 2.5 7.125 0 7.25 C-2.5 7.125 -2.5 7.125 -3.5 6.125 C-3.625 3.625 -3.625 3.625 -3.5 1.125 C-2.5 0.125 -2.5 0.125 0 0 Z " fill="#000000" transform="translate(37.5,105.875)"/>
<path d="M0 0 C2.625 0.375 2.625 0.375 5 1 C5.625 2.875 5.625 2.875 6 5 C5.34 5.66 4.68 6.32 4 7 C1.375 6.625 1.375 6.625 -1 6 C-1.625 4.125 -1.625 4.125 -2 2 C-1.34 1.34 -0.68 0.68 0 0 Z " fill="#000000" transform="translate(23,159)"/>
<path d="M0 0 C0.598125 0.226875 1.19625 0.45375 1.8125 0.6875 C2.5 2.5 2.5 2.5 2.8125 4.6875 C1.625 6.5 1.625 6.5 -0.1875 7.6875 C-2.375 7.375 -2.375 7.375 -4.1875 6.6875 C-4.875 4.875 -4.875 4.875 -5.1875 2.6875 C-3.58493056 0.24147296 -2.95482043 -0.4221172 0 0 Z " fill="#000000" transform="translate(26.1875,46.3125)"/>
</svg>
