<?xml version="1.0" encoding="UTF-8"?>
<svg version="1.1" xmlns="http://www.w3.org/2000/svg" width="512" height="512">
<path d="M0 0 C1.45053741 -0.00573832 1.45053741 -0.00573832 2.93037862 -0.01159257 C6.14970227 -0.02185771 9.3688454 -0.01794276 12.58818054 -0.01396179 C14.90498519 -0.01831188 17.2217884 -0.02349601 19.53858948 -0.02944946 C25.81760388 -0.04281939 32.09655802 -0.0434203 38.37558389 -0.04088616 C43.62392255 -0.039815 48.87224909 -0.0447036 54.12058514 -0.04949158 C67.21405604 -0.06121354 80.30749268 -0.06036568 93.40096577 -0.05393478 C104.75077483 -0.04876811 116.10049799 -0.06001681 127.45029006 -0.07903299 C139.12592917 -0.09844396 150.80152771 -0.10666161 162.47718304 -0.10290974 C169.02345764 -0.10109961 175.56965358 -0.10370619 182.1159153 -0.11762428 C188.27441103 -0.13022838 194.43273529 -0.12823395 200.59122849 -0.11521339 C202.84538901 -0.11285363 205.0995617 -0.11556067 207.35370827 -0.12383652 C224.97038886 -0.18382665 241.54281423 0.55534216 255.12211609 13.25679016 C264.31053053 23.05649205 269.19923548 34.63759557 269.06352234 48.07319641 C269.0544989 49.23464172 269.04547546 50.39608704 269.03617859 51.59272766 C269.01877625 52.91337219 269.01877625 52.91337219 269.00102234 54.26069641 C269.9819989 54.28647766 270.96297546 54.31225891 271.97367859 54.33882141 C298.08505609 55.31147022 321.36225271 65.94421515 339.18461609 85.01069641 C348.41189504 95.38227206 354.55606984 107.17278071 359.00102234 120.26069641 C359.36195984 121.31772766 359.72289734 122.37475891 360.09477234 123.46382141 C366.63710826 147.57354081 362.33283482 174.08377276 350.05815125 195.50630188 C347.34825765 200.00359873 344.27998867 204.16716581 341.00102234 208.26069641 C340.52278015 208.89104797 340.04453796 209.52139954 339.55180359 210.17085266 C325.94758759 227.2833192 303.81356109 237.72419971 282.54789734 241.02632141 C278.01638847 241.44333143 273.54845872 241.37881164 269.00102234 241.26069641 C269.00102234 246.21069641 269.00102234 251.16069641 269.00102234 256.26069641 C271.33164734 256.34319641 273.66227234 256.42569641 276.06352234 256.51069641 C300.84947931 257.83710349 322.4255696 269.81299705 339.48930359 287.38569641 C358.58830304 309.24707059 363.86464782 334.82282641 362.00102234 363.26069641 C359.35509455 386.99466867 345.94756743 408.02628443 328.00102234 423.26069641 C323.56584496 426.66284657 318.86327004 429.51578456 314.00102234 432.26069641 C313.12832703 432.76085266 312.25563171 433.26100891 311.35649109 433.77632141 C300.12765292 439.79889697 286.92560915 443.42340068 274.16508484 443.30757141 C273.19264832 443.30080383 272.22021179 443.29403625 271.2183075 443.2870636 C270.48660339 443.27836243 269.75489929 443.26966125 269.00102234 443.26069641 C269.01673279 443.93012268 269.03244324 444.59954895 269.04862976 445.28926086 C269.11179484 448.38381671 269.15026797 451.47823621 269.18852234 454.57319641 C269.21365906 455.62571594 269.23879578 456.67823547 269.26469421 457.76264954 C269.39065265 471.40814675 265.46212474 484.2709649 256.00492859 494.38179016 C244.7984176 504.88925953 232.39838428 508.41567057 217.36280823 508.40113831 C215.91611572 508.40559499 215.91611572 508.40559499 214.44019711 508.41014171 C211.21160268 508.41880641 207.98304543 508.42033508 204.75444031 508.42182922 C202.43807903 508.426459 200.12171852 508.43148388 197.80535889 508.43687439 C191.51378708 508.44998567 185.22222594 508.45644097 178.9306426 508.46088505 C174.99772212 508.46381805 171.06480455 508.46792331 167.13188553 508.47238922 C156.23028865 508.48449558 145.32869497 508.49487826 134.4270916 508.49826431 C133.7299972 508.49848388 133.03290281 508.49870344 132.31468434 508.49892966 C131.2666215 508.49925708 131.2666215 508.49925708 130.19738567 508.49959111 C128.78167081 508.50003457 127.36595595 508.50048113 125.95024109 508.50093079 C125.24800612 508.50115222 124.54577116 508.50137365 123.82225634 508.50160179 C112.45286161 508.50554673 101.08353109 508.52299294 89.71416114 508.54629031 C78.02506243 508.57004832 66.33599587 508.5824682 54.64687264 508.58363223 C48.09048579 508.58467898 41.53418953 508.59055913 34.97782516 508.60845184 C28.80706751 508.62496472 22.63646825 508.62707231 16.46569633 508.61831284 C14.20669696 508.61754417 11.94768895 508.62186259 9.68871117 508.63177109 C-8.22973341 508.70572765 -24.04505375 508.0404555 -37.81147766 495.01069641 C-49.42742434 482.62589459 -52.21703372 469.22570743 -52.06147766 452.76069641 C-52.05696594 451.84288391 -52.05245422 450.92507141 -52.04780579 449.97944641 C-52.03614092 447.7397925 -52.0197738 445.50028096 -51.99897766 443.26069641 C-52.94514954 443.30710266 -53.89132141 443.35350891 -54.86616516 443.40132141 C-80.18756062 444.24742104 -102.33685726 434.84805798 -121.47554016 418.62788391 C-138.00055609 403.12608878 -149.54733965 380.26712978 -150.43257141 357.46382141 C-150.45593489 355.14623047 -150.45676529 352.82831632 -150.43647766 350.51069641 C-150.4251178 348.67644104 -150.4251178 348.67644104 -150.41352844 346.80513 C-149.93842861 320.57753845 -139.07790874 299.36651534 -120.66304016 280.92085266 C-107.37736641 268.34460809 -90.92746758 260.51600488 -72.99897766 257.26069641 C-72.29514954 257.12921204 -71.59132141 256.99772766 -70.86616516 256.86225891 C-64.62874921 255.89663385 -58.28983891 256.19516661 -51.99897766 256.26069641 C-51.99897766 251.31069641 -51.99897766 246.36069641 -51.99897766 241.26069641 C-53.50460266 241.32257141 -55.01022766 241.38444641 -56.56147766 241.44819641 C-78.29563576 241.39239626 -99.08378749 231.61843678 -114.99897766 217.26069641 C-116.17073547 216.2126886 -116.17073547 216.2126886 -117.36616516 215.14350891 C-133.73309201 199.6827095 -144.51850726 176.86333245 -145.20210266 154.29194641 C-145.49399635 133.67718684 -142.65707187 110.31870195 -128.49897766 94.07319641 C-125.99897766 92.26069641 -125.99897766 92.26069641 -122.99897766 91.69819641 C-119.19413372 92.41160465 -117.54779717 93.33705051 -114.99897766 96.26069641 C-114.30318981 102.27111913 -115.92680968 105.87364354 -118.74897766 110.94819641 C-127.93778526 128.34728953 -131.19215016 147.76343813 -126.49897766 167.13569641 C-122.84769213 178.7991668 -117.2642647 190.18474157 -108.99897766 199.26069641 C-108.32221985 200.0173761 -107.64546204 200.77405579 -106.94819641 201.55366516 C-93.53798684 215.77372754 -74.38804503 224.11935924 -54.9108429 224.73603821 C-32.47803478 224.93017013 -12.85349997 217.78922996 3.32524109 201.99116516 C17.92628821 186.64643143 25.40385291 167.53883099 25.30375671 146.4535675 C24.77741889 125.81430188 16.12766886 107.13085065 2.00102234 92.26069641 C-14.46334734 77.30501399 -34.74002874 70.26052788 -56.99507141 71.12886047 C-69.40677931 71.9454202 -82.04533193 76.03940358 -92.70210266 82.45210266 C-95.99897766 84.26069641 -95.99897766 84.26069641 -99.74897766 84.26069641 C-102.99897766 83.26069641 -102.99897766 83.26069641 -104.93647766 81.57319641 C-106.34487328 78.50786477 -106.47669811 76.60473956 -105.99897766 73.26069641 C-102.97903096 68.54957955 -99.46074152 66.53333783 -94.56147766 64.19819641 C-93.85136536 63.85385559 -93.14125305 63.50951477 -92.40962219 63.15473938 C-79.58209211 57.09003255 -66.2165863 54.04473274 -51.99897766 54.26069641 C-52.04022766 53.02319641 -52.08147766 51.78569641 -52.12397766 50.51069641 C-52.01499878 36.53960359 -48.00869214 24.21543585 -38.43647766 13.82319641 C-27.60273176 3.79867848 -14.50539467 -0.06175201 0 0 Z M-30.31147766 29.76069641 C-34.77803902 36.37782435 -36.1476148 42.73471713 -36.06147766 50.57319641 C-36.04085266 52.45007141 -36.02022766 54.32694641 -35.99897766 56.26069641 C-29.06897766 57.74569641 -29.06897766 57.74569641 -21.99897766 59.26069641 C-21.85202454 57.74089172 -21.85202454 57.74089172 -21.70210266 56.19038391 C-21.55191843 54.83872586 -21.40082843 53.48716825 -21.24897766 52.13569641 C-21.15616516 51.13796204 -21.15616516 51.13796204 -21.06147766 50.12007141 C-20.34117948 43.99753685 -17.86291512 39.39440759 -13.06147766 35.51069641 C-7.60377219 31.50095361 -3.07700221 30.94362593 3.59086609 30.92475891 C4.82408348 30.91477371 4.82408348 30.91477371 6.08221436 30.90458679 C7.81611401 30.89448966 9.5500523 30.88976886 11.28398132 30.89009094 C13.9266445 30.88571607 16.56763846 30.84936284 19.21000671 30.81147766 C20.89945416 30.80560906 22.5889095 30.80163996 24.27836609 30.79975891 C25.45519203 30.77820236 25.45519203 30.77820236 26.65579224 30.75621033 C32.74759014 30.80657927 36.30480824 32.66077567 40.75102234 36.94819641 C42.3576516 39.92046055 42.83866286 42.82028836 43.37602234 46.13960266 C44.13497339 48.71529281 44.89404505 49.60838725 47.00102234 51.26069641 C49.34590869 51.71196619 49.34590869 51.71196619 52.01115417 51.64164734 C53.56324837 51.65433655 53.56324837 51.65433655 55.146698 51.6672821 C56.28133987 51.66120941 57.41598175 51.65513672 58.58500671 51.64888 C59.78031509 51.65413696 60.97562347 51.65939392 62.20715332 51.66481018 C65.48612076 51.675762 68.76472573 51.67318036 72.04368782 51.66367292 C75.47360629 51.65608258 78.90350039 51.66312019 82.3334198 51.66783142 C88.09359592 51.67329082 93.85365669 51.66609262 99.61381531 51.65180969 C106.27528487 51.63548272 112.93647899 51.64077111 119.59794188 51.65728891 C125.31522338 51.67089862 131.03242191 51.672826 136.74971437 51.6649729 C140.165332 51.6602935 143.58082012 51.65967872 146.99642944 51.66958237 C150.80349023 51.67717447 154.61001709 51.66562326 158.41703796 51.64888 C160.11900078 51.65798904 160.11900078 51.65798904 161.85534668 51.6672821 C162.89007614 51.65882263 163.9248056 51.65036316 164.9908905 51.64164734 C166.3414642 51.63995072 166.3414642 51.63995072 167.7193222 51.63821983 C170.46907984 51.18325299 171.32914214 50.44982515 173.00102234 48.26069641 C173.85887402 45.93526184 173.85887402 45.93526184 174.43852234 43.38569641 C175.61422673 39.20676785 176.76666794 36.30479467 180.00102234 33.26069641 C184.30548418 31.02190002 188.47950222 30.9234834 193.23149109 30.88960266 C194.41718437 30.87605995 194.41718437 30.87605995 195.62683105 30.86224365 C197.29685197 30.84777307 198.96692917 30.83886236 200.63700867 30.8351593 C203.16364464 30.82331305 205.68779539 30.77414391 208.21391296 30.72358704 C216.95789298 30.63510941 224.78004723 30.59383432 232.00102234 36.26069641 C238.47945148 43.16473664 238.37420582 50.21662948 239.00102234 59.26069641 C245.93102234 57.77569641 245.93102234 57.77569641 253.00102234 56.26069641 C253.39514692 42.72908582 252.4362084 34.32228487 243.00102234 24.26069641 C235.61706236 17.42117587 226.80585876 15.80661651 217.03327942 15.87301636 C216.06963246 15.86763082 215.10598551 15.86224528 214.11313713 15.85669655 C210.90522298 15.84246396 207.69772421 15.84950917 204.48979187 15.85664368 C202.18121511 15.85093765 199.87264117 15.84397249 197.56407166 15.83584595 C191.30782641 15.8179248 185.05172151 15.81908108 178.79545832 15.82478833 C173.56690269 15.82788183 168.33837395 15.82178589 163.10982215 15.81574959 C150.06707543 15.80090711 137.02440738 15.80451492 123.98166095 15.81661289 C112.67318006 15.82654231 101.36486287 15.81360694 90.05640723 15.7896787 C78.42483226 15.76525356 66.79334022 15.75608741 55.16174018 15.76233143 C48.63950986 15.76569842 42.11741475 15.76330286 35.5952034 15.7460804 C29.46046324 15.73058769 23.32603501 15.73459302 17.19130707 15.75338554 C14.94479048 15.757065 12.69825067 15.75398182 10.45175552 15.74349976 C-6.6882025 15.66965483 -18.20385185 16.6713712 -30.31147766 29.76069641 Z M-4.37837219 48.06391907 C-7.46330037 52.24562797 -7.32264953 57.21765887 -7.01850891 62.22554016 C-6.38276205 66.07292015 -4.86046796 67.96594573 -1.64179993 70.29243469 C0.89848718 71.89650554 3.47345263 73.43934134 6.05082703 74.98286438 C22.95621582 86.05983045 34.25876176 107.05910795 38.87602234 126.26069641 C39.27368218 128.25631452 39.65201482 130.25599724 40.00102234 132.26069641 C40.34133484 134.17882141 40.34133484 134.17882141 40.68852234 136.13569641 C43.30660895 162.87360221 36.20465309 186.92922768 19.62602234 208.01069641 C8.84053176 220.71689079 8.84053176 220.71689079 2.2832489 223.35346985 C-1.26316173 224.975311 -3.41176731 226.31437296 -5.99897766 229.26069641 C-7.91138808 234.99043486 -7.66319968 241.1578355 -7.54292297 247.12886047 C-7.4991984 249.9962209 -7.58291179 252.84031784 -7.67866516 255.70600891 C-7.91392762 266.08543466 -7.91392762 266.08543466 -3.14839172 274.90596008 C-0.01127781 277.76841606 3.42002157 279.99162031 7.00102234 282.26069641 C22.36200941 295.32039464 32.15488888 316.49476904 35.00102234 336.26069641 C35.91283781 351.14781327 35.9998556 366.07879472 31.00102234 380.26069641 C30.76496277 380.93100891 30.5289032 381.60132141 30.28569031 382.29194641 C24.87901132 397.01651897 14.18070083 415.69140849 -0.12007141 423.40473938 C-2.62412026 424.83300348 -4.21934065 425.97648185 -5.99897766 428.26069641 C-6.95198751 432.63645076 -6.9857048 436.84487784 -6.82221985 441.31098938 C-6.74887315 443.38865674 -6.74018296 445.45920951 -6.74116516 447.53804016 C-6.93915315 454.32925143 -6.93915315 454.32925143 -4.51541901 460.42392063 C-0.89481277 463.06663744 2.53203903 462.81089817 6.84513855 462.76190186 C7.74819906 462.76743625 8.65125957 462.77297065 9.58168554 462.77867275 C12.6143207 462.7923098 15.64613722 462.77729335 18.67875671 462.7624054 C20.85017243 462.76618745 23.02158574 462.77168656 25.19299316 462.77877808 C31.09583136 462.79276462 36.99837912 462.78154033 42.90120125 462.76506686 C49.07196926 462.75123916 55.24272002 462.75767384 61.41349792 462.76119995 C71.77719313 462.76390387 82.14077263 462.75041074 92.50444031 462.72724915 C104.4946605 462.70063827 116.48459502 462.69889164 128.47484159 462.71063751 C139.99826762 462.72140824 151.5216235 462.71523374 163.04504395 462.70108223 C167.95406752 462.69531632 172.86303987 462.69540987 177.77206421 462.70014763 C183.55047582 462.70491198 189.32867495 462.69483807 195.10704613 462.67319298 C197.23071259 462.66761756 199.35439945 462.66716669 201.4780674 462.67214584 C204.37125124 462.67807963 207.26378128 462.66563005 210.15690613 462.64837646 C211.42518572 462.65739153 211.42518572 462.65739153 212.71908712 462.66658872 C216.05877318 462.6302341 218.54060349 462.50869039 221.51151276 460.90847874 C226.09157608 455.84174571 224.24224014 444.40547129 224.02055359 438.00288391 C223.48212775 432.2587579 223.48212775 432.2587579 220.32524109 427.64350891 C217.42534878 425.46953708 214.20475396 423.9209763 210.95121765 422.34516907 C207.53268522 420.44417745 204.90777642 417.7900894 202.18852234 415.01069641 C201.65195007 414.46348938 201.11537781 413.91628235 200.56254578 413.35249329 C183.9675211 395.82700204 176.71601365 373.21575114 176.56352234 349.44819641 C176.55337097 348.3277594 176.5432196 347.20732239 176.53276062 346.05293274 C176.71712358 328.44107638 176.71712358 328.44107638 181.42118835 322.45283508 C183.00102234 321.26069641 183.00102234 321.26069641 185.93852234 320.82319641 C189.00102234 321.26069641 189.00102234 321.26069641 191.37602234 322.82319641 C194.53509613 327.5618071 192.90629189 333.35944118 191.93852234 338.69819641 C189.03229174 358.43547473 193.87746353 378.81001413 205.34672546 395.18159485 C218.42817517 412.53655805 236.54670527 423.42584743 258.00102234 427.26069641 C280.97192886 429.00328375 301.21815782 424.50315171 319.00102234 409.26069641 C319.5901239 408.81468079 320.17922546 408.36866516 320.78617859 407.90913391 C335.49863512 396.44749351 344.41661413 376.61872515 346.75102234 358.44819641 C346.85263413 357.05357453 346.93692221 355.65754512 347.00102234 354.26069641 C347.05258484 353.61745422 347.10414734 352.97421204 347.15727234 352.31147766 C348.09505836 331.79740852 339.63950091 312.15406408 326.21195984 297.06538391 C312.54371832 282.36118552 293.7650116 273.02265446 273.60258484 271.97554016 C251.86601406 271.32613344 232.29323915 278.09157342 216.34086609 293.01069641 C215.56871765 293.75319641 214.79656921 294.49569641 214.00102234 295.26069641 C213.2804364 295.94132141 212.55985046 296.62194641 211.81742859 297.32319641 C209.31923969 299.70811187 209.31923969 299.70811187 207.00102234 302.26069641 C207.00102234 302.92069641 207.00102234 303.58069641 207.00102234 304.26069641 C203.62185263 304.54599217 200.3717904 304.68881647 197.00102234 304.26069641 C194.81352234 302.13569641 194.81352234 302.13569641 194.00102234 299.26069641 C194.69968945 289.35843377 204.33321056 282.75710851 211.25102234 276.46382141 C214.00102234 274.26069641 214.00102234 274.26069641 216.26689148 273.33784485 C219.26359141 271.94774296 220.91019286 270.84843525 223.00102234 268.26069641 C224.65471477 262.91881717 224.50436547 257.23436468 224.44902039 251.69477844 C224.43857513 249.02419309 224.55023394 246.37739013 224.67094421 243.70991516 C224.98848249 235.11352262 224.98848249 235.11352262 221.61705017 227.49287415 C218.79691111 224.90455378 215.7509591 222.97886182 212.40361023 221.14448547 C209.30765163 219.43045688 207.41583813 217.77848718 205.00102234 215.26069641 C204.34102234 215.26069641 203.68102234 215.26069641 203.00102234 215.26069641 C202.7444989 214.67804016 202.48797546 214.09538391 202.22367859 213.49507141 C200.89081966 211.05930366 199.38919602 209.48107386 197.43852234 207.51069641 C179.84542524 187.99835236 175.95755348 162.83971799 176.80570984 137.49751282 C177.52796979 125.52785979 181.40160714 114.82230522 187.00102234 104.26069641 C187.50246765 103.26682922 188.00391296 102.27296204 188.52055359 101.24897766 C194.76516815 89.62578997 205.92049023 75.87566174 218.17680359 70.26460266 C220.39957953 69.19107761 221.47976387 68.19869284 223.00102234 66.26069641 C223.68537225 63.41798396 223.66132952 60.55288137 223.68852234 57.63569641 C223.69577332 56.87007385 223.70302429 56.10445129 223.710495 55.31562805 C223.60667021 51.03693212 223.60667021 51.03693212 221.39579773 47.53926086 C218.15254626 45.8076972 215.71449596 45.92111836 212.04789734 45.96772766 C211.38767578 45.9719725 210.72745422 45.97621735 210.04722595 45.98059082 C207.94806843 45.99732206 205.84988737 46.0349609 203.75102234 46.07319641 C202.32395292 46.08825057 200.89686838 46.1019377 199.46977234 46.11421204 C195.97987417 46.1472064 192.49054363 46.19894898 189.00102234 46.26069641 C188.70840515 47.51366516 188.41578796 48.76663391 188.11430359 50.05757141 C186.6376606 56.38046564 183.3451278 60.61106341 178.00102234 64.26069641 C174.39704539 65.95710024 171.56532767 66.5126168 167.59420776 66.52139282 C166.521884 66.52847763 165.44956024 66.53556244 164.34474182 66.54286194 C162.59521713 66.53914581 162.59521713 66.53914581 160.81034851 66.53535461 C158.95584328 66.54302101 158.95584328 66.54302101 157.06387329 66.55084229 C153.67936175 66.56235138 150.29509532 66.56481318 146.91058135 66.56227899 C144.08028657 66.56120746 141.25001424 66.56609748 138.41972429 66.57088441 C131.73839177 66.58197305 125.05711546 66.58242115 118.3757782 66.57637024 C111.49625423 66.5703353 104.61693504 66.5826306 97.73744601 66.60394031 C91.82048309 66.62159077 85.90358514 66.62755211 79.98659688 66.62430257 C76.45737948 66.62249445 72.92830804 66.62507812 69.39911461 66.63901711 C65.45928888 66.65399586 61.51972109 66.6445952 57.57987976 66.63301086 C55.83946411 66.64447647 55.83946411 66.64447647 54.06388855 66.65617371 C46.98456558 66.61022871 40.89399173 66.14409417 35.01274109 61.78804016 C32.15909725 58.36198399 30.54132617 55.32682475 29.33305359 51.01460266 C28.95177307 49.67570984 28.95177307 49.67570984 28.56278992 48.30976868 C28.37740662 47.63357483 28.19202332 46.95738098 28.00102234 46.26069641 C23.80186927 46.16162383 19.60333982 46.08913468 15.40336609 46.04096985 C13.97551113 46.02088659 12.54773809 45.99361389 11.12016296 45.9589386 C9.06461866 45.91026972 7.01016379 45.88769674 4.95414734 45.87007141 C3.71825867 45.84912415 2.48237 45.82817688 1.20903015 45.80659485 C-2.06127592 46.00427829 -2.06127592 46.00427829 -4.37837219 48.06391907 Z M210.38383484 96.47163391 C197.89261092 111.09250912 189.88627904 130.56190477 190.78227234 150.04975891 C190.85445984 150.77936829 190.92664734 151.50897766 191.00102234 152.26069641 C191.09383484 153.21718079 191.18664734 154.17366516 191.28227234 155.15913391 C193.89766198 175.93136317 203.28064002 194.37697922 219.31352234 208.01069641 C237.90699474 222.43222625 259.02037771 227.78201278 282.36576843 224.97651672 C301.24564266 221.77333588 319.53511379 210.65428852 331.00102234 195.26069641 C340.06930074 182.23565983 345.84567674 168.13294434 347.00102234 152.26069641 C347.08223328 151.28423157 347.08223328 151.28423157 347.16508484 150.28804016 C348.03625905 129.73624863 339.65677715 110.62663409 326.46977234 95.32319641 C311.81625513 79.8077076 292.46423183 70.64337002 271.01176453 69.9066925 C246.93569114 69.65529106 226.92540924 79.29179941 210.38383484 96.47163391 Z M239.00102234 236.26069641 C239.00102234 244.51069641 239.00102234 252.76069641 239.00102234 261.26069641 C245.93102234 259.77569641 245.93102234 259.77569641 253.00102234 258.26069641 C253.00102234 252.32069641 253.00102234 246.38069641 253.00102234 240.26069641 C248.38102234 238.94069641 243.76102234 237.62069641 239.00102234 236.26069641 Z M-30.68647766 238.76069641 C-32.43960266 239.25569641 -34.19272766 239.75069641 -35.99897766 240.26069641 C-35.99897766 246.53069641 -35.99897766 252.80069641 -35.99897766 259.26069641 C-31.37897766 260.58069641 -26.75897766 261.90069641 -21.99897766 263.26069641 C-21.99897766 254.68069641 -21.99897766 246.10069641 -21.99897766 237.26069641 C-25.19919916 237.26069641 -27.61381237 237.89312033 -30.68647766 238.76069641 Z M-107.99897766 291.26069641 C-108.80593079 291.9761261 -109.61288391 292.69155579 -110.44429016 293.42866516 C-126.13602257 308.13666511 -133.2360297 326.74974278 -135.24897766 347.88569641 C-135.31268414 350.05171653 -135.21233456 352.10426778 -134.99897766 354.26069641 C-134.90616516 355.21718079 -134.81335266 356.17366516 -134.71772766 357.15913391 C-131.92783933 379.31728545 -121.43941456 398.5129158 -103.74116516 412.26460266 C-85.86647207 425.27595333 -65.46169186 429.55139342 -43.68403625 426.98823547 C-28.89724625 424.57336762 -14.98979968 417.31739793 -3.99897766 407.26069641 C-2.97610657 406.37511047 -2.97610657 406.37511047 -1.93257141 405.47163391 C7.78617969 396.53266519 14.06629328 384.72897287 18.00102234 372.26069641 C18.23434265 371.52979797 18.46766296 370.79889954 18.70805359 370.04585266 C23.65759749 351.4939651 20.90298331 330.70294355 12.21195984 313.77632141 C7.92848557 306.50636109 2.9551589 300.22509872 -2.99897766 294.26069641 C-3.68475891 293.5633136 -4.37054016 292.86593079 -5.07710266 292.14741516 C-20.3121239 277.61771898 -40.41915168 271.62662688 -61.13569641 271.99116516 C-78.31063955 272.68362066 -95.28637588 279.67543856 -107.99897766 291.26069641 Z M-30.12397766 438.69819641 C-31.01343079 438.96503235 -31.90288391 439.23186829 -32.81929016 439.50679016 C-34.9499219 440.06593217 -34.9499219 440.06593217 -35.99897766 441.26069641 C-36.2826655 444.89834817 -36.23095484 448.55082809 -36.24897766 452.19819641 C-36.26960266 453.20688782 -36.29022766 454.21557922 -36.31147766 455.25483704 C-36.37080247 466.77126604 -33.65097864 475.32199211 -25.81147766 483.88569641 C-20.20725136 489.34498583 -12.66850087 492.37521857 -4.84902 492.39491749 C-3.61320216 492.40160425 -3.61320216 492.40160425 -2.3524183 492.40842611 C-1.45262707 492.40824174 -0.55283583 492.40805738 0.3742218 492.40786743 C1.3343022 492.41154412 2.2943826 492.41522081 3.28355634 492.41900891 C6.50920795 492.43004533 9.73482733 492.43388954 12.960495 492.43769836 C15.26995445 492.44396306 17.5794129 492.45060987 19.88887024 492.45761108 C27.48093463 492.47865361 35.07299923 492.48901384 42.66508484 492.49897766 C45.27875657 492.50302518 47.89242819 492.5071421 50.5060997 492.51132774 C61.37845153 492.52819682 72.25080044 492.54283131 83.12316322 492.55007648 C85.94328945 492.55198627 88.76341567 492.55390662 91.58354187 492.55586243 C92.63489183 492.55658804 92.63489183 492.55658804 93.70748119 492.55732831 C105.05574223 492.56562453 116.40389772 492.59095531 127.7521127 492.6234431 C139.41175959 492.65654942 151.07134747 492.67419597 162.73104131 492.67772073 C169.27401302 492.680071 175.81681787 492.68902892 182.35974503 492.7141819 C188.5173708 492.73747106 194.67471997 492.74169222 200.83237839 492.73142052 C203.08899608 492.73092525 205.34562742 492.73724281 207.60220337 492.75097656 C210.69043891 492.76871605 213.77768398 492.76157863 216.86592102 492.7484436 C217.75232792 492.75941285 218.63873483 492.7703821 219.55200255 492.78168374 C229.20866903 492.68298172 238.04341609 489.00927586 245.00102234 482.26069641 C252.46438057 473.1719846 253.30246039 465.25773943 253.12602234 453.82319641 C253.11248718 452.15353821 253.11248718 452.15353821 253.09867859 450.45014954 C253.07524474 447.72010618 253.04243634 444.99051631 253.00102234 442.26069641 C248.37995141 440.64332159 243.75500904 439.40821044 239.00102234 438.26069641 C238.98700378 439.28840149 238.98700378 439.28840149 238.97270203 440.33686829 C238.91860324 443.47884076 238.8350341 446.61938709 238.75102234 449.76069641 C238.73684265 450.83835266 238.72266296 451.91600891 238.70805359 453.02632141 C238.46808548 460.89727536 237.47026041 466.79145834 231.68852234 472.57319641 C225.15548033 476.67533907 220.18647732 477.70158798 212.59527588 477.64837646 C211.66797305 477.653762 210.74067021 477.65914754 209.78526729 477.66469628 C206.68851091 477.67896518 203.59218262 477.67187468 200.4954071 477.66474915 C198.27092648 477.67045325 196.04644879 477.67741766 193.82197571 477.68554688 C187.78687936 477.70348855 181.75192833 477.70230799 175.71681333 477.69660449 C170.67695981 477.69351422 165.63713427 477.69960328 160.59728473 477.70564324 C148.02772848 477.72049298 135.45825975 477.71687216 122.88871007 477.70477993 C111.98223095 477.69484786 101.07592149 477.7077892 90.16946853 477.73171412 C78.9594707 477.75611888 67.74954981 477.76531015 56.53951877 477.7590614 C50.2504194 477.75569038 43.96146021 477.75811677 37.67238045 477.77531242 C31.75846062 477.79077665 25.8448648 477.78683144 19.93095779 477.76800728 C17.76219813 477.76432005 15.59341448 477.76743371 13.4246769 477.77789307 C10.46066213 477.79109508 7.49772128 477.77956192 4.53375244 477.76190186 C3.67858475 477.77150686 2.82341705 477.78111187 1.94233519 477.79100794 C-4.72432482 477.70946102 -9.89974835 475.88128027 -15.02241516 471.54975891 C-15.46843079 471.00061829 -15.91444641 470.45147766 -16.37397766 469.88569641 C-16.83546204 469.34171204 -17.29694641 468.79772766 -17.77241516 468.23725891 C-21.60585408 462.05980639 -21.41568378 455.43297286 -21.62397766 448.38569641 C-21.66264954 447.31577454 -21.70132141 446.24585266 -21.74116516 445.14350891 C-21.83500218 442.51607233 -21.92069323 439.8886347 -21.99897766 437.26069641 C-25.06468784 437.26069641 -27.20645294 437.80932955 -30.12397766 438.69819641 Z " fill="#000000" transform="translate(149.9989776611328,1.7393035888671875)"/>
<path d="M0 0 C1.33119282 1.12406225 2.6452717 2.26885279 3.9375 3.4375 C4.54722656 3.96730469 5.15695312 4.49710938 5.78515625 5.04296875 C16.59914553 15.04887971 23.97893931 30.32238967 25.14233398 45.02636719 C25.88833207 65.86875647 22.28783356 82.84668094 8.171875 99.046875 C-3.68725893 111.73531899 -19.53073483 120.28787605 -37.0625 121.4375 C-37.77019531 121.4890625 -38.47789062 121.540625 -39.20703125 121.59375 C-52.97474938 122.14171888 -68.02620981 118.59259528 -79.25 110.5 C-81.43994689 109.05960195 -82.56290468 108.43110664 -85.19921875 108.46484375 C-87.56788444 108.96503319 -89.77669463 109.64030177 -92.0625 110.4375 C-103.31245052 114.16479072 -103.31245052 114.16479072 -108.0625 112.4375 C-110.91581478 110.51067331 -113.49426893 108.57396215 -115.0625 105.4375 C-115.68879036 97.7418499 -113.32507108 91.99221828 -110.46289062 84.94726562 C-108.19032946 78.9835142 -107.79683125 74.68040732 -109.0625 68.4375 C-112.42058642 49.64187959 -109.64661409 31.51643195 -99.0625 15.4375 C-87.21810283 -1.07593427 -71.33554275 -10.36600946 -51.5625 -14.25 C-32.43063356 -15.95820236 -15.41128817 -11.57152654 0 0 Z M-82.0625 19.4375 C-89.86981272 29.68740768 -94.26204588 40.35638751 -94.25 53.25 C-94.25064453 53.96631592 -94.25128906 54.68263184 -94.25195312 55.4206543 C-94.21605484 58.99946825 -94.07313927 62.30952589 -93.0625 65.75 C-90.76239115 74.23165138 -91.83658484 81.13639014 -95.28515625 89.125 C-96.35901309 91.55133303 -96.35901309 91.55133303 -95.0625 94.4375 C-93.9178125 93.9425 -93.9178125 93.9425 -92.75 93.4375 C-86.32600136 91.69539867 -80.9489855 90.95743088 -74.84765625 94.0859375 C-72.64145204 95.4972786 -70.4513092 96.93401938 -68.27734375 98.39453125 C-56.8326598 105.66739845 -43.11766836 107.21237467 -30 104.3125 C-15.29765591 100.17207455 -3.71471387 90.57890195 3.9375 77.4375 C10.17191755 65.7894973 11.26198115 52.11802095 7.9375 39.4375 C3.6657857 26.04286099 -4.9432797 14.68049152 -17.2421875 7.609375 C-39.73028378 -3.29073755 -64.92913934 0.55220125 -82.0625 19.4375 Z " fill="#000000" transform="translate(301.0625,202.5625)"/>
<path d="M0 0 C1.44674323 -0.00202508 2.89348545 -0.00494011 4.34022522 -0.00869751 C7.36192613 -0.01310192 10.38335966 -0.00675206 13.4050293 0.00732422 C17.25589559 0.02439988 21.10613369 0.01457367 24.95697689 -0.00339317 C27.94178396 -0.0142955 30.92644504 -0.01075509 33.91125679 -0.0030098 C35.33006428 -0.00102475 36.74888552 -0.00340668 38.16767693 -0.01044846 C47.25113882 -0.04564321 55.88971388 -0.01235284 63.41015625 5.6484375 C69.34318704 11.71944575 71.20943608 17.5114461 71.25878906 25.87597656 C71.26839661 27.19124329 71.27800415 28.50651001 71.28790283 29.8616333 C71.29275186 31.29577459 71.29703043 32.72991791 71.30078125 34.1640625 C71.30653818 35.64133708 71.31229584 37.11861166 71.3180542 38.59588623 C71.32854955 41.69267117 71.33440146 44.78943026 71.33789062 47.88623047 C71.34336516 51.83813499 71.36737679 55.78969321 71.39586258 59.74148941 C71.41456664 62.79399586 71.41969872 65.84642029 71.4212265 68.89897919 C71.42423725 70.35491575 71.43221199 71.81085142 71.44541168 73.26673126 C71.52562005 82.79535407 71.51273408 91.18936602 64.84765625 98.7109375 C64.30625 99.34644531 63.76484375 99.98195313 63.20703125 100.63671875 C58.25245164 104.77471024 53.26397658 105.77458818 46.9440918 105.81835938 C46.26662903 105.82682892 45.58916626 105.83529846 44.89117432 105.84402466 C42.67204529 105.86724648 40.45361587 105.86842028 38.234375 105.8671875 C36.67649566 105.87429921 35.11861892 105.88199967 33.56074524 105.89025879 C30.30189733 105.90367044 27.04329153 105.90528793 23.78442383 105.89941406 C19.63182808 105.89352789 15.48040552 105.92407876 11.32803631 105.96453094 C8.11155567 105.99053025 4.89535272 105.99327426 1.67878151 105.98963928 C0.14912792 105.99131984 -1.38054 106.00085863 -2.91008949 106.01878357 C-11.83139783 106.11182059 -19.3904714 105.72788486 -26.90234375 100.3984375 C-29.15625 98.046875 -29.15625 98.046875 -30.46484375 95.7734375 C-30.91988281 95.01804687 -31.37492187 94.26265625 -31.84375 93.484375 C-33.90430886 89.42408558 -34.0433217 86.17019984 -34.0793457 81.66723633 C-34.0859169 80.98714508 -34.0924881 80.30705383 -34.09925842 79.60635376 C-34.11896382 77.35605756 -34.13064972 75.10582812 -34.140625 72.85546875 C-34.14470053 72.08489325 -34.14877605 71.31431774 -34.15297508 70.52039146 C-34.17382717 66.43929692 -34.18813084 62.35823588 -34.19750977 58.27709961 C-34.20855381 54.07509414 -34.24293245 49.8736212 -34.28268147 45.67180347 C-34.30891298 42.42971355 -34.31720751 39.18774906 -34.32079124 35.94556236 C-34.3256428 34.39750268 -34.3372158 32.84944807 -34.35582924 31.30149269 C-34.4603541 22.03028419 -34.40565728 14.85602461 -28.26171875 7.41015625 C-27.46507812 6.75466797 -27.46507812 6.75466797 -26.65234375 6.0859375 C-26.1315625 5.63605469 -25.61078125 5.18617187 -25.07421875 4.72265625 C-16.99443008 -0.20368972 -9.22330501 -0.04570168 0 0 Z M-17.90234375 20.3984375 C-18.65047365 23.38192223 -18.65047365 23.38192223 -18.53344727 26.75585938 C-18.54598038 28.04399536 -18.55851349 29.33213135 -18.57142639 30.65930176 C-18.55915808 32.06194062 -18.54573806 33.46456981 -18.53125 34.8671875 C-18.53207891 36.30920592 -18.53453912 37.75122425 -18.53855896 39.1932373 C-18.54141554 42.21293639 -18.52673119 45.23189316 -18.49926758 48.25146484 C-18.46518351 52.11883702 -18.47120346 55.9848821 -18.48993015 59.85231781 C-18.5005076 62.82927477 -18.49155588 65.80592383 -18.47654533 68.78285217 C-18.47136842 70.20857325 -18.4718394 71.63432656 -18.47809029 73.06004333 C-18.48355033 75.05374315 -18.46029979 77.04745899 -18.43579102 79.04101562 C-18.42959244 80.17478638 -18.42339386 81.30855713 -18.41700745 82.47668457 C-18.1006 85.46373368 -18.1006 85.46373368 -16.26634216 87.76243591 C-13.19101963 89.8907083 -11.27197365 89.91150814 -7.54492188 89.93188477 C-6.25678589 89.9477211 -4.9686499 89.96355743 -3.64147949 89.97987366 C-2.23884722 89.97603234 -0.8362178 89.97099338 0.56640625 89.96484375 C2.00842694 89.97007984 3.45044419 89.97635627 4.89245605 89.98362732 C7.91202939 89.99402827 10.93113138 89.98947463 13.95068359 89.97485352 C17.81818469 89.95765829 21.68420113 89.98116892 25.55153656 90.01634312 C28.52848127 90.03831444 31.50507047 90.03687666 34.48207092 90.0285778 C35.90781789 90.02775825 37.33359094 90.03462265 38.75926208 90.04934883 C40.75285419 90.06678597 42.74666037 90.04893779 44.74023438 90.02954102 C45.87400513 90.02857925 47.00777588 90.02761749 48.17590332 90.02662659 C51.24937855 89.62146066 51.24937855 89.62146066 53.46165466 87.2509613 C55.37038747 83.92290477 55.60944645 81.94577469 55.63110352 78.12695312 C55.64693985 76.88216187 55.66277618 75.63737061 55.67909241 74.3548584 C55.67525095 73.0047976 55.67021191 71.65473976 55.6640625 70.3046875 C55.66930105 68.91133204 55.67557839 67.51798014 55.68284607 66.12463379 C55.69323654 63.20938385 55.68870848 60.29462246 55.67407227 57.37939453 C55.65687714 53.64988374 55.68039266 49.92191259 55.71556187 46.19257355 C55.73755776 43.31681173 55.73608952 40.44141723 55.72779655 37.56559753 C55.72697837 36.19091604 55.73381654 34.81620721 55.74856758 33.44160461 C55.86615339 25.48680271 55.86615339 25.48680271 53.43920898 18.05688477 C47.86730565 15.29149137 42.1147587 15.70395487 36.00390625 15.76953125 C34.61055313 15.76870195 33.21720011 15.76624027 31.82385254 15.76222229 C28.90847201 15.75936858 25.99386157 15.77402168 23.07861328 15.80151367 C19.34923614 15.83559746 15.62123535 15.82957517 11.8917923 15.8108511 C9.01601777 15.80026182 6.14056127 15.80923605 3.26481628 15.82423592 C1.8901616 15.82940416 0.51547351 15.82895242 -0.85917664 15.82269096 C-2.78311476 15.8172166 -4.70706914 15.84051562 -6.63085938 15.86499023 C-8.2703656 15.8742881 -8.2703656 15.8742881 -9.94299316 15.8837738 C-13.70384668 16.5378277 -15.3393182 17.57699141 -17.90234375 20.3984375 Z " fill="#000000" transform="translate(79.90234375,96.6015625)"/>
<path d="M0 0 C0.495 0.495 0.495 0.495 1 1 C5.14276875 1.24733137 5.14276875 1.24733137 9 0 C13.79071504 -0.60314758 18.46469604 -0.97653609 22.5 2 C25.45472059 5.54566471 26.89902671 8.41736592 27 13 C25.80976926 20.63082513 23.09436557 28.4378815 17.984375 34.3203125 C15.71107785 37.39015865 15.05013868 39.79447817 14.1875 43.5 C9.79838245 59.76355187 0.23148819 72.69538096 -14.23046875 81.33203125 C-30.66998152 90.20883178 -49.85410744 92.34390448 -67.921875 87.96875 C-72.82110755 86.42685955 -76.36033759 84.73277068 -79.11328125 80.14453125 C-81.1210133 75.57185517 -81.40678108 71.87684108 -80 67 C-77.27971819 63.27220641 -74.38439205 62.19574329 -70 61 C-70.51949219 60.47792969 -71.03898437 59.95585937 -71.57421875 59.41796875 C-81.01879178 49.44966709 -84.77076438 38.6133211 -85 25 C-84.58003733 17.72306057 -83.7165548 11.36471423 -80 5 C-76.70716746 2.6800498 -74.64788088 2.02399559 -70.625 1.875 C-66.37417043 3.19422297 -64.35932506 5.08380431 -61.171875 8.0859375 C-55.58729741 13.00759761 -49.26098372 16.42152528 -42 18 C-41.9175 16.96875 -41.835 15.9375 -41.75 14.875 C-40.25572037 7.15455526 -35.05286565 2.58513671 -29 -2 C-19.34409187 -7.05785664 -9.042484 -5.2610816 0 0 Z M-24 14 C-27.59275655 17.96442102 -27.42568316 22.36452948 -27.59375 27.4765625 C-28 30 -28 30 -29.29296875 31.78125 C-33.39878246 34.71263187 -38.52131229 34.18131528 -43.28125 33.59765625 C-50.69289282 32.21207258 -56.95708263 29.90426628 -63.57421875 26.3046875 C-66.02866282 24.89551906 -66.02866282 24.89551906 -69 24 C-68.81470201 32.8606128 -67.253285 40.24632853 -61.20703125 47.00390625 C-57.137438 50.76482776 -52.72450654 53.47464766 -47.78515625 55.95703125 C-46 57 -46 57 -45 59 C-44.4375 62.25 -44.4375 62.25 -45 66 C-47.40935472 68.42033128 -50.1460298 70.14893097 -53 72 C-53.66 72.66 -54.32 73.32 -55 74 C-40.34830801 74.98223633 -26.16851543 71.39501523 -14.875 61.875 C-6.32156638 53.84631691 -1.7748959 43.78223588 0.8125 32.4375 C2.33195351 28.03908195 4.78446063 24.76058584 7.5390625 21.0390625 C9.09706934 19.28258631 9.09706934 19.28258631 9 18 C8.14277344 17.98582031 7.28554687 17.97164063 6.40234375 17.95703125 C-0.11138646 17.68531984 -4.4403702 17.41731519 -9.45703125 13.15625 C-14.34007764 9.49705575 -19.35620508 10.83377619 -24 14 Z " fill="#000000" transform="translate(122,309)"/>
<path d="M0 0 C2.86961483 1.05171384 5.39049234 2.54550569 8 4.125 C8.75692139 4.56440918 9.51384277 5.00381836 10.29370117 5.45654297 C11.96106257 6.42712404 13.62387952 7.40554276 15.28271484 8.390625 C18.1936287 10.11468108 21.12036422 11.80932131 24.05078125 13.5 C55.10227998 31.44706303 55.10227998 31.44706303 58 35 C59.11464207 39.63005166 59.5043485 42.86238075 57 47 C51.43046819 52.33070112 44.68981887 55.76542368 38 59.5 C35.47991736 60.91338928 32.96191927 62.33043154 30.4453125 63.75 C29.50112961 64.28191956 29.50112961 64.28191956 28.53787231 64.82458496 C24.50705078 67.10833285 20.54790906 69.48375422 16.6171875 71.9375 C15.64265625 72.54013672 14.668125 73.14277344 13.6640625 73.76367188 C11.85852827 74.88770544 10.06337236 76.02865806 8.28125 77.18945312 C2.62451052 80.68253437 -2.31706361 82.32850339 -9 81 C-11.82424288 78.80977082 -13.41508603 77.16982793 -15 74 C-15.11733162 71.90822591 -15.1697988 69.81270857 -15.19287109 67.71777344 C-15.20104858 67.07362991 -15.20922607 66.42948639 -15.21765137 65.76582336 C-15.24249777 63.63035001 -15.25902122 61.4949432 -15.2734375 59.359375 C-15.27876118 58.62951637 -15.28408485 57.89965775 -15.28956985 57.14768219 C-15.316301 53.28287303 -15.33567402 49.41809613 -15.35009766 45.55322266 C-15.36342724 42.35794382 -15.39126008 39.16330509 -15.43212891 35.96826172 C-15.48150716 32.10794227 -15.5062251 28.24820265 -15.51332474 24.38758087 C-15.52002852 22.91878177 -15.53522817 21.44999516 -15.55921555 19.98137665 C-15.75843086 7.04399395 -15.75843086 7.04399395 -12.59228516 3.11425781 C-8.50064307 -0.22286975 -5.18828598 -0.67383324 0 0 Z M1 20 C1 33.53 1 47.06 1 61 C6.20889274 59.29354708 6.20889274 59.29354708 10.84765625 56.8984375 C11.52965088 56.49415527 12.21164551 56.08987305 12.91430664 55.67333984 C13.62321045 55.2448877 14.33211426 54.81643555 15.0625 54.375 C15.80040771 53.93494629 16.53831543 53.49489258 17.29858398 53.04150391 C23.90421449 49.09080545 30.46608065 45.06807501 37 41 C34.35373879 37.97827938 31.22697815 36.25578632 27.7578125 34.27734375 C27.15242645 33.93119522 26.54704041 33.58504669 25.92330933 33.22840881 C24.64534874 32.49914621 23.36602922 31.7722605 22.08544922 31.04760742 C20.13546093 29.94342352 18.1905179 28.83074374 16.24609375 27.71679688 C11.22990729 24.86003138 6.3755744 22.15022976 1 20 Z " fill="#000000" transform="translate(405,312)"/>
<path d="M0 0 C2.02221737 -0.01192977 4.04141144 -0.06116808 6.06298828 -0.11157227 C7.97917969 -0.12220703 7.97917969 -0.12220703 9.93408203 -0.13305664 C11.10261719 -0.14651123 12.27115234 -0.15996582 13.47509766 -0.17382812 C16.52783203 0.42553711 16.52783203 0.42553711 18.94384766 2.73388672 C20.52783203 5.42553711 20.52783203 5.42553711 20.46533203 9.05053711 C19.53010036 12.41737112 19.23192324 13.41637712 16.52783203 15.42553711 C14.15527344 15.77856445 14.15527344 15.77856445 11.37939453 15.76147461 C9.87119141 15.78081055 9.87119141 15.78081055 8.33251953 15.80053711 C6.22052591 15.80053711 4.10851742 15.7927823 1.99658203 15.77709961 C-2.58325721 15.84737847 -5.63199105 15.9408594 -9.64794922 18.25756836 C-12.36960701 22.98404474 -12.25375858 27.37010615 -12.28466797 32.73803711 C-12.30980469 33.76477539 -12.33494141 34.79151367 -12.36083984 35.84936523 C-12.41957882 38.37514111 -12.45595509 40.89918939 -12.47216797 43.42553711 C-11.59173828 43.39073242 -10.71130859 43.35592773 -9.80419922 43.32006836 C-8.64275391 43.29299805 -7.48130859 43.26592773 -6.28466797 43.23803711 C-5.13611328 43.20323242 -3.98755859 43.16842773 -2.80419922 43.13256836 C0.86072437 43.45480666 2.62447918 44.21321318 5.52783203 46.42553711 C7.52783203 49.42553711 7.52783203 49.42553711 7.40283203 52.92553711 C6.52783203 56.42553711 6.52783203 56.42553711 4.95751953 58.13256836 C1.59230587 59.92338142 -1.51499369 59.74969098 -5.22216797 59.61303711 C-5.91955078 59.59950195 -6.61693359 59.5859668 -7.33544922 59.57202148 C-9.04802338 59.5368316 -10.76019738 59.48302866 -12.47216797 59.42553711 C-12.45551338 60.37061127 -12.45551338 60.37061127 -12.43852234 61.33477783 C-12.32796546 67.88816156 -12.25251581 74.44128075 -12.19750977 80.99536133 C-12.17235441 83.44175983 -12.13822631 85.8880831 -12.0949707 88.33422852 C-12.03436726 91.84922842 -12.00596776 95.3632354 -11.98388672 98.87866211 C-11.95808029 99.97357971 -11.93227386 101.06849731 -11.90568542 102.19659424 C-11.90289008 109.75207962 -11.90289008 109.75207962 -14.77612305 113.15112305 C-18.45072999 114.88810106 -20.59964206 114.50123875 -24.47216797 113.42553711 C-26.72644056 111.76489595 -27.39439914 110.92067816 -27.83293152 108.12861633 C-27.82626968 107.22926865 -27.81960785 106.32992096 -27.81274414 105.40332031 C-27.81251755 104.38248856 -27.81229095 103.3616568 -27.8120575 102.30989075 C-27.79657364 101.20981186 -27.78108978 100.10973297 -27.76513672 98.97631836 C-27.76089188 97.84856491 -27.75664703 96.72081146 -27.75227356 95.55888367 C-27.73546108 91.95169344 -27.69780325 88.34505889 -27.65966797 84.73803711 C-27.64462449 82.29468579 -27.63093551 79.85132574 -27.61865234 77.40795898 C-27.58554913 71.41362829 -27.5353239 65.4196224 -27.47216797 59.42553711 C-29.13505859 59.51254883 -29.13505859 59.51254883 -30.83154297 59.60131836 C-32.29504248 59.6482254 -33.7585876 59.69372455 -35.22216797 59.73803711 C-35.95177734 59.77993164 -36.68138672 59.82182617 -37.43310547 59.86499023 C-41.32685139 59.95348446 -43.06644665 59.79477496 -45.99169922 57.13256836 C-48.00443309 53.45229243 -47.5788462 51.40957876 -46.47216797 47.42553711 C-44.57682921 44.84098426 -43.5839028 44.46278205 -40.47216797 43.42553711 C-38.24398356 43.35616649 -36.01382273 43.34096627 -33.78466797 43.36303711 C-32.01542969 43.37657227 -32.01542969 43.37657227 -30.21044922 43.39038086 C-29.30681641 43.40198242 -28.40318359 43.41358398 -27.47216797 43.42553711 C-27.51144409 42.21607422 -27.51144409 42.21607422 -27.55151367 40.98217773 C-27.65603057 37.29683239 -27.72067035 33.61179973 -27.78466797 29.92553711 C-27.8265625 28.65709961 -27.86845703 27.38866211 -27.91162109 26.08178711 C-28.00972768 18.54720149 -27.66912075 13.14585793 -22.47216797 7.42553711 C-15.4105077 0.38891819 -9.68508845 0.0270928 0 0 Z " fill="#000000" transform="translate(432.47216796875,95.574462890625)"/>
<path d="M0 0 C6.1711515 3.61453159 10.44221546 8.48549305 12.625 15.3125 C13.75105698 22.27737097 12.68344521 27.93156117 9.2578125 34.078125 C5.99136137 38.5480055 1.85733693 41.56838769 -3.375 43.3125 C-11.04534455 43.95256979 -18.08981305 44.20893266 -24.375 39.3125 C-28.99329782 34.95249624 -32.00072837 30.71140868 -32.7109375 24.26171875 C-32.79299785 17.40967925 -32.65199472 11.88715875 -28.375 6.3125 C-20.70817305 -1.35432695 -10.20675579 -4.74643086 0 0 Z M-16.375 17.3125 C-17.46068503 19.15517868 -17.46068503 19.15517868 -17.375 21.3125 C-16.02505423 24.46237346 -14.90552513 25.97743149 -12 27.8125 C-9.32086058 28.54681416 -9.32086058 28.54681416 -6.625 27.375 C-4.08318439 25.39332091 -4.08318439 25.39332091 -3.3125 21.875 C-3.05416058 18.31842927 -3.05416058 18.31842927 -5 15.875 C-9.3867571 12.98897559 -12.71328412 13.65078412 -16.375 17.3125 Z " fill="#000000" transform="translate(108.375,128.6875)"/>
<path d="M0 0 C2.4375 2.125 2.4375 2.125 4 5 C3.87172137 8.59180166 3.31783573 11.27604083 1.875 14.5625 C0.68438688 17.87920796 0.98767338 19.62557792 2 23 C4.08152704 24.83114045 5.77463763 26.07690134 8.125 27.4375 C9.24132812 28.13746094 10.35765625 28.83742188 11.5078125 29.55859375 C15.63609051 31.26254743 17.73498225 31.22511237 22 30 C23.98336745 28.49266992 23.98336745 28.49266992 25.3125 26.5 C27.88870704 23.05564648 27.88870704 23.05564648 30 22 C34.05263598 21.45964854 35.53730231 21.65800605 38.875 24.125 C41 27 41 27 41.6875 29.8125 C40.24940174 36.48004646 35.8140792 40.68887495 30.3125 44.4375 C24.33555705 48.22599406 18.98376484 48.91475005 12 48 C7.70611292 46.45464218 3.89984475 44.35550623 0 42 C-0.92554688 41.44699219 -1.85109375 40.89398438 -2.8046875 40.32421875 C-9.25247257 36.16281444 -13.79810191 32.03436559 -15.62109375 24.3984375 C-16.7011407 16.49293922 -14.9670448 10.10513696 -11.5625 3 C-8.21258452 -1.28789181 -5.12905131 -1.60282853 0 0 Z " fill="#000000" transform="translate(249,230)"/>
<path d="M0 0 C2.375 1.125 2.375 1.125 4 3 C5.20362584 6.69111926 5.34418291 8.29598951 3.625 11.8125 C2 14 2 14 1 15 C-6.07246377 15.57971014 -6.07246377 15.57971014 -9.5 13.4375 C-11.58392818 10.05111671 -11.55802097 7.90614682 -11 4 C-8.09912777 -0.52536068 -5.13093735 -0.64136717 0 0 Z " fill="#000000" transform="translate(262,28)"/>
</svg>
